<svg width="189" height="228" viewBox="0 0 189 228" fill="none" xmlns="http://www.w3.org/2000/svg">
<path d="M88.679 143.349C64.7642 120.119 68.7383 73.7602 90.4509 48.1745C112.164 22.5888 149.152 20.6789 173.066 43.9086C196.981 67.1383 210.743 97.227 189.031 122.813C167.318 148.398 112.594 166.579 88.679 143.349Z" fill="#FFCB3C"/>
<mask id="mask0_560_3575" style="mask-type:alpha" maskUnits="userSpaceOnUse" x="33" y="71" width="173" height="140">
<path d="M137.741 86.8207C169.616 81.223 199.696 104.33 204.929 138.431C210.161 172.533 188.563 204.715 156.689 210.313C124.814 215.911 39.3235 119.461 34.0914 85.3592C28.8592 51.2577 105.867 92.4184 137.741 86.8207Z" fill="#FFCB3C"/>
</mask>
<g mask="url(#mask0_560_3575)">
<path fill-rule="evenodd" clip-rule="evenodd" d="M140.617 157.279C139.705 161.359 140.069 165.724 142.098 170.249C149.028 185.7 161.87 190.27 176.09 188.686C196.076 186.455 218.822 171.61 229.478 160.021C230.723 158.667 230.704 156.489 229.441 155.157C228.176 153.829 226.14 153.845 224.895 155.199C215.015 165.945 193.957 179.778 175.425 181.845C163.962 183.126 153.479 179.727 147.891 167.273C146.683 164.579 146.396 161.985 146.802 159.535C148.329 160.04 149.853 160.511 151.372 160.944C157.454 162.674 173.805 163.984 185.134 160.433C194.098 157.622 199.949 151.845 198.244 142.347C197.27 136.909 193.566 133.42 188.137 131.889C181.442 130.002 171.837 131.271 163.01 134.975C155.669 138.051 148.899 142.787 144.733 148.494C144.149 149.293 143.614 150.112 143.13 150.946C114.333 139.67 85.4728 115.258 70.5335 87.6147C69.6465 85.9726 67.6813 85.412 66.1433 86.3615C64.6085 87.3105 64.0849 89.4162 64.9719 91.0583C80.5531 119.892 110.58 145.391 140.617 157.279ZM149.46 153.214C150.649 153.598 151.838 153.96 153.023 154.296C158.481 155.849 173.156 157.021 183.326 153.834C188.708 152.147 192.954 149.342 191.933 143.64C191.432 140.843 189.291 139.324 186.5 138.539C182.8 137.495 178.035 137.729 173.1 138.864C165.444 140.63 157.379 144.608 152.078 150.047C151.098 151.052 150.215 152.109 149.46 153.214Z" fill="#35312B"/>
<path fill-rule="evenodd" clip-rule="evenodd" d="M113.684 103.367C98.8522 103.254 81.9508 95.8289 69.6463 86.823C68.1826 85.7526 66.1826 86.1525 65.1789 87.719C64.1784 89.2849 64.5528 91.4281 66.0165 92.4986C79.3147 102.229 97.6134 110.123 113.638 110.242C115.412 110.255 116.861 108.725 116.872 106.828C116.884 104.93 115.458 103.38 113.684 103.367Z" fill="#35312B"/>
<path fill-rule="evenodd" clip-rule="evenodd" d="M65.3662 92.3134C73.0464 102.445 76.4573 119.455 75.3497 132.485C75.1906 134.377 76.496 136.05 78.2612 136.221C80.0265 136.392 81.5908 134.999 81.7531 133.106C82.9934 118.457 78.9939 99.3728 70.3582 87.9805C69.2431 86.5074 67.2153 86.2815 65.839 87.4779C64.4626 88.6743 64.2511 90.8403 65.3662 92.3134Z" fill="#35312B"/>
</g>
<path d="M34.364 69.18C33.44 69.18 32.606 68.982 31.862 68.586C31.13 68.19 30.548 67.608 30.116 66.84C29.696 66.06 29.486 65.094 29.486 63.942C29.486 62.778 29.696 61.806 30.116 61.026C30.536 60.246 31.118 59.664 31.862 59.28C32.618 58.884 33.476 58.686 34.436 58.686C35.228 58.686 35.93 58.83 36.542 59.118C37.154 59.406 37.664 59.826 38.072 60.378C38.492 60.918 38.774 61.584 38.918 62.376H38.072C37.952 61.74 37.718 61.206 37.37 60.774C37.034 60.33 36.614 60 36.11 59.784C35.618 59.556 35.06 59.442 34.436 59.442C33.164 59.442 32.156 59.826 31.412 60.594C30.68 61.362 30.314 62.466 30.314 63.906C30.314 65.394 30.674 66.522 31.394 67.29C32.126 68.046 33.116 68.424 34.364 68.424C35.048 68.424 35.654 68.31 36.182 68.082C36.71 67.854 37.136 67.524 37.46 67.092C37.796 66.66 38.018 66.132 38.126 65.508H39.008C38.864 66.288 38.588 66.954 38.18 67.506C37.772 68.046 37.244 68.46 36.596 68.748C35.96 69.036 35.216 69.18 34.364 69.18ZM43.2339 69.18C42.4779 69.18 41.8419 69.024 41.3259 68.712C40.8219 68.388 40.4439 67.944 40.1919 67.38C39.9399 66.816 39.8139 66.174 39.8139 65.454C39.8139 64.722 39.9399 64.074 40.1919 63.51C40.4439 62.934 40.8219 62.49 41.3259 62.178C41.8419 61.854 42.4779 61.692 43.2339 61.692C44.3379 61.692 45.1779 62.04 45.7539 62.736C46.3419 63.42 46.6359 64.326 46.6359 65.454C46.6359 66.15 46.5159 66.786 46.2759 67.362C46.0359 67.926 45.6639 68.37 45.1599 68.694C44.6559 69.018 44.0139 69.18 43.2339 69.18ZM43.2339 68.442C43.9059 68.442 44.4279 68.292 44.7999 67.992C45.1719 67.692 45.4299 67.314 45.5739 66.858C45.7299 66.39 45.8079 65.916 45.8079 65.436C45.8079 64.944 45.7299 64.47 45.5739 64.014C45.4299 63.546 45.1719 63.162 44.7999 62.862C44.4279 62.562 43.9059 62.412 43.2339 62.412C42.5739 62.412 42.0519 62.562 41.6679 62.862C41.2839 63.162 41.0139 63.546 40.8579 64.014C40.7139 64.47 40.6419 64.944 40.6419 65.436C40.6419 65.916 40.7139 66.39 40.8579 66.858C41.0139 67.314 41.2839 67.692 41.6679 67.992C42.0519 68.292 42.5739 68.442 43.2339 68.442ZM47.7554 69V61.692H48.4394L48.5834 63.636H48.6194C48.6434 63.552 48.7034 63.408 48.7994 63.204C48.8954 63 49.0454 62.784 49.2494 62.556C49.4534 62.316 49.7234 62.112 50.0594 61.944C50.3954 61.776 50.8154 61.692 51.3194 61.692C51.8234 61.692 52.2374 61.764 52.5614 61.908C52.8974 62.052 53.1674 62.25 53.3714 62.502C53.5874 62.742 53.7494 63.024 53.8574 63.348C53.9654 63.66 54.0374 63.99 54.0734 64.338C54.1094 64.686 54.1274 65.034 54.1274 65.382V69H53.3174V65.382C53.3174 64.782 53.2514 64.266 53.1194 63.834C52.9874 63.39 52.7654 63.048 52.4534 62.808C52.1414 62.568 51.7094 62.448 51.1574 62.448C50.5694 62.448 50.0834 62.592 49.6994 62.88C49.3274 63.168 49.0454 63.546 48.8534 64.014C48.6734 64.482 48.5834 64.992 48.5834 65.544V69H47.7554ZM56.7833 69C56.4113 69 56.1653 68.892 56.0453 68.676C55.9373 68.46 55.8833 68.202 55.8833 67.902V62.214H56.6753V68.298H58.3853V69H56.7833ZM54.6773 62.358V61.692C55.0013 61.692 55.2473 61.68 55.4153 61.656C55.5833 61.632 55.7033 61.566 55.7753 61.458C55.8473 61.338 55.8893 61.152 55.9013 60.9C55.9253 60.636 55.9373 60.27 55.9373 59.802H56.6753V61.692H58.3853V62.358H54.6773ZM62.1782 69.162C61.5062 69.162 60.9482 68.994 60.5042 68.658C60.0602 68.322 59.7302 67.872 59.5142 67.308C59.2982 66.732 59.1902 66.096 59.1902 65.4C59.1902 64.668 59.2982 64.02 59.5142 63.456C59.7422 62.892 60.0782 62.448 60.5222 62.124C60.9782 61.788 61.5302 61.62 62.1782 61.62C62.5382 61.62 62.8562 61.668 63.1322 61.764C63.4082 61.86 63.6542 61.986 63.8702 62.142C64.0862 62.298 64.2662 62.478 64.4102 62.682C64.5662 62.874 64.6862 63.084 64.7702 63.312H64.7882V61.692H65.6342V69H64.9502L64.8062 67.488H64.7702C64.6742 67.704 64.5482 67.914 64.3922 68.118C64.2482 68.31 64.0682 68.49 63.8522 68.658C63.6362 68.814 63.3902 68.934 63.1142 69.018C62.8382 69.114 62.5262 69.162 62.1782 69.162ZM62.4842 68.406C63.0002 68.406 63.4262 68.286 63.7622 68.046C64.1102 67.806 64.3682 67.464 64.5362 67.02C64.7042 66.564 64.7882 66.03 64.7882 65.418C64.7882 64.746 64.6982 64.194 64.5182 63.762C64.3382 63.318 64.0742 62.982 63.7262 62.754C63.3902 62.526 62.9762 62.412 62.4842 62.412C61.9202 62.412 61.4522 62.544 61.0802 62.808C60.7202 63.072 60.4502 63.426 60.2702 63.87C60.1022 64.314 60.0182 64.824 60.0182 65.4C60.0182 65.988 60.1082 66.51 60.2882 66.966C60.4682 67.422 60.7382 67.776 61.0982 68.028C61.4702 68.28 61.9322 68.406 62.4842 68.406ZM69.9198 69.18C69.2358 69.18 68.6298 69.036 68.1018 68.748C67.5858 68.46 67.1778 68.04 66.8778 67.488C66.5778 66.936 66.4278 66.282 66.4278 65.526C66.4518 64.758 66.6078 64.086 66.8958 63.51C67.1958 62.934 67.6098 62.49 68.1378 62.178C68.6658 61.854 69.2778 61.692 69.9738 61.692C70.5738 61.692 71.1018 61.806 71.5578 62.034C72.0138 62.25 72.3858 62.55 72.6738 62.934C72.9738 63.318 73.1658 63.756 73.2498 64.248H72.4758C72.3558 63.684 72.0738 63.246 71.6298 62.934C71.1858 62.61 70.6398 62.448 69.9918 62.448C69.4398 62.448 68.9598 62.58 68.5518 62.844C68.1438 63.096 67.8258 63.45 67.5978 63.906C67.3698 64.362 67.2498 64.89 67.2378 65.49C67.2378 66.378 67.4778 67.092 67.9578 67.632C68.4498 68.16 69.1098 68.424 69.9378 68.424C70.5858 68.424 71.1378 68.262 71.5938 67.938C72.0618 67.614 72.3558 67.17 72.4758 66.606H73.2498C73.1658 67.098 72.9678 67.536 72.6558 67.92C72.3558 68.304 71.9718 68.61 71.5038 68.838C71.0478 69.066 70.5198 69.18 69.9198 69.18ZM75.8478 69C75.4758 69 75.2298 68.892 75.1098 68.676C75.0018 68.46 74.9478 68.202 74.9478 67.902V62.214H75.7398V68.298H77.4498V69H75.8478ZM73.7418 62.358V61.692C74.0658 61.692 74.3118 61.68 74.4798 61.656C74.6478 61.632 74.7678 61.566 74.8398 61.458C74.9118 61.338 74.9538 61.152 74.9658 60.9C74.9898 60.636 75.0018 60.27 75.0018 59.802H75.7398V61.692H77.4498V62.358H73.7418ZM87.0584 69.252C85.7504 69.252 84.7364 68.856 84.0164 68.064C83.2964 67.26 82.9364 66.132 82.9364 64.68V58.866H83.7644V64.68C83.7644 65.316 83.8424 65.874 83.9984 66.354C84.1544 66.822 84.3764 67.218 84.6644 67.542C84.9524 67.854 85.3004 68.088 85.7084 68.244C86.1164 68.4 86.5664 68.478 87.0584 68.478C87.7784 68.478 88.3784 68.34 88.8584 68.064C89.3504 67.788 89.7224 67.368 89.9744 66.804C90.2384 66.24 90.3704 65.532 90.3704 64.68V58.866H91.1804V64.68C91.1804 66.156 90.8264 67.29 90.1184 68.082C89.4224 68.862 88.4024 69.252 87.0584 69.252ZM95.4713 69.18C94.9793 69.18 94.5593 69.114 94.2113 68.982C93.8633 68.838 93.5753 68.658 93.3473 68.442C93.1193 68.226 92.9393 68.004 92.8073 67.776C92.6753 67.548 92.5793 67.338 92.5193 67.146C92.4713 66.954 92.4473 66.81 92.4473 66.714H93.2573C93.2573 66.726 93.2693 66.828 93.2933 67.02C93.3293 67.2 93.4133 67.41 93.5453 67.65C93.6893 67.89 93.9113 68.1 94.2113 68.28C94.5113 68.448 94.9313 68.532 95.4713 68.532C95.8673 68.532 96.2273 68.49 96.5513 68.406C96.8753 68.31 97.1333 68.166 97.3253 67.974C97.5173 67.77 97.6133 67.506 97.6133 67.182C97.6133 66.798 97.4873 66.504 97.2353 66.3C96.9953 66.084 96.6833 65.928 96.2993 65.832C95.9153 65.724 95.5133 65.628 95.0933 65.544C94.6733 65.448 94.2713 65.328 93.8873 65.184C93.5153 65.04 93.2093 64.83 92.9693 64.554C92.7413 64.278 92.6273 63.9 92.6273 63.42C92.6393 62.844 92.9093 62.382 93.4373 62.034C93.9653 61.674 94.6433 61.494 95.4713 61.494C95.7833 61.494 96.1133 61.53 96.4613 61.602C96.8093 61.674 97.1273 61.8 97.4153 61.98C97.7153 62.16 97.9553 62.406 98.1353 62.718C98.3273 63.03 98.4053 63.438 98.3693 63.942H97.5773C97.5893 63.57 97.5233 63.27 97.3793 63.042C97.2473 62.814 97.0613 62.64 96.8213 62.52C96.5933 62.388 96.3533 62.304 96.1013 62.268C95.8493 62.232 95.6213 62.214 95.4173 62.214C94.8533 62.214 94.3733 62.316 93.9773 62.52C93.5933 62.724 93.4013 63.036 93.4013 63.456C93.4013 63.804 93.5213 64.074 93.7613 64.266C94.0013 64.458 94.3133 64.608 94.6973 64.716C95.0813 64.812 95.4833 64.902 95.9033 64.986C96.3233 65.07 96.7253 65.19 97.1093 65.346C97.4933 65.502 97.8053 65.724 98.0453 66.012C98.2853 66.3 98.4053 66.702 98.4053 67.218C98.4053 67.686 98.2733 68.064 98.0093 68.352C97.7573 68.64 97.4093 68.85 96.9653 68.982C96.5213 69.114 96.0233 69.18 95.4713 69.18Z" fill="black"/>
<path d="M29 71.25H98.9993V72.15H29V71.25Z" fill="black"/>
<path d="M51.9924 119.873C23.818 111.424 7.31465 80.0996 15.241 49.8436C19.1998 34.7326 28.1163 24.238 39.5455 18.5648C50.9841 12.887 64.9875 12.0163 79.1368 16.2592C93.4249 20.5437 105.939 25.8961 113.891 33.8995C117.852 37.8869 120.675 42.5273 122.027 48.0296C123.38 53.5367 123.272 59.9575 121.292 67.5173C117.326 82.6559 107.022 97.8886 94.1551 108.265C81.2766 118.65 65.9729 124.065 51.9924 119.873Z" stroke="black" stroke-width="1.5"/>
</svg>
