<svg width="18" height="17" viewBox="0 0 18 17" fill="none" xmlns="http://www.w3.org/2000/svg">
<g id="chevron-left">
<mask id="path-1-outside-1_664_1476" maskUnits="userSpaceOnUse" x="0" y="0" width="18" height="17" fill="black">
<rect fill="white" width="18" height="17"/>
<path d="M0 0H17V17H0V0Z"/>
</mask>
<path d="M16 0V17H18V0H16Z" fill="black" mask="url(#path-1-outside-1_664_1476)"/>
<path id="Vector " fill-rule="evenodd" clip-rule="evenodd" d="M11.0007 3.87435C11.2081 4.08182 11.2081 4.41818 11.0007 4.62565L7.1263 8.5L11.0007 12.3743C11.2081 12.5818 11.2081 12.9182 11.0007 13.1257C10.7932 13.3331 10.4568 13.3331 10.2493 13.1257L5.99935 8.87565C5.79188 8.66818 5.79188 8.33182 5.99935 8.12435L10.2493 3.87435C10.4568 3.66688 10.7932 3.66688 11.0007 3.87435Z" fill="black"/>
</g>
</svg>
