<svg width="18" height="17" viewBox="0 0 18 17" fill="none" xmlns="http://www.w3.org/2000/svg">
<g id="chevron-right">
<mask id="path-1-outside-1_664_1480" maskUnits="userSpaceOnUse" x="0" y="0" width="18" height="17" fill="black">
<rect fill="white" width="18" height="17"/>
<path d="M1 0H18V17H1V0Z"/>
</mask>
<path d="M2 17V0H0V17H2Z" fill="black" mask="url(#path-1-outside-1_664_1480)"/>
<path id="Vector " fill-rule="evenodd" clip-rule="evenodd" d="M6.99935 3.87435C7.20682 3.66688 7.54318 3.66688 7.75065 3.87435L12.0007 8.12435C12.2081 8.33182 12.2081 8.66818 12.0007 8.87565L7.75065 13.1257C7.54318 13.3331 7.20682 13.3331 6.99935 13.1257C6.79188 12.9182 6.79188 12.5818 6.99935 12.3743L10.8737 8.5L6.99935 4.62565C6.79188 4.41818 6.79188 4.08182 6.99935 3.87435Z" fill="black"/>
</g>
</svg>
