<svg width="328" height="532" viewBox="0 0 328 532" fill="none" xmlns="http://www.w3.org/2000/svg">
<path d="M328.001 297.44C328.001 371.618 267.971 431.75 193.92 431.75C119.868 431.75 73.8848 371.618 73.8848 297.44C73.8848 223.262 88.1879 161.961 162.239 161.961C236.29 161.961 328.001 223.262 328.001 297.44Z" fill="#7B61FF"/>
<g clip-path="url(#clip0_947_3392)">
<path fill-rule="evenodd" clip-rule="evenodd" d="M270.883 136.819C243.149 188.39 187.747 209.356 136.291 180.323C134.578 179.356 132.406 179.961 131.439 181.652C130.472 183.374 131.077 185.55 132.79 186.516C187.944 217.664 247.427 195.459 277.155 140.202C278.086 138.48 277.436 136.305 275.705 135.368C273.974 134.462 271.814 135.097 270.883 136.819Z" fill="black"/>
<path d="M179.594 158.205C185.323 158.205 189.967 153.561 189.967 147.832C189.967 142.103 185.323 137.459 179.594 137.459C173.865 137.459 169.221 142.103 169.221 147.832C169.221 153.561 173.865 158.205 179.594 158.205Z" fill="black"/>
<path d="M222.536 147.171C228.153 147.171 232.706 142.617 232.706 137C232.706 131.383 228.153 126.83 222.536 126.83C216.919 126.83 212.365 131.383 212.365 137C212.365 142.617 216.919 147.171 222.536 147.171Z" fill="black"/>
</g>
<path fill-rule="evenodd" clip-rule="evenodd" d="M96.1713 432.04C90.5359 434.563 84.9287 437.03 79.3596 439.715C74.6444 441.992 72.6711 447.675 74.9481 452.39C77.2251 457.105 82.8986 459.079 87.6138 456.802C93.0215 454.193 98.4672 451.802 103.941 449.345C108.723 447.2 110.857 441.584 108.713 436.802C106.569 432.03 100.953 429.896 96.1713 432.04Z" fill="#7B61FF"/>
<path fill-rule="evenodd" clip-rule="evenodd" d="M133.607 465.169C125.486 482.759 118.256 500.747 110.514 518.497C108.418 523.298 110.619 528.895 115.42 530.992C120.22 533.079 125.808 530.888 127.905 526.087C135.599 508.46 142.762 490.595 150.836 473.129C153.027 468.376 150.95 462.731 146.197 460.539C141.443 458.338 135.798 460.416 133.607 465.169Z" fill="#7B61FF"/>
<path fill-rule="evenodd" clip-rule="evenodd" d="M202.55 473.841C205.14 489.941 208.185 506.003 210.586 522.131C211.363 527.302 216.193 530.878 221.373 530.11C226.553 529.332 230.129 524.503 229.361 519.323C226.932 503.128 223.887 487 221.287 470.824C220.453 465.653 215.586 462.133 210.415 462.968C205.244 463.794 201.715 468.67 202.55 473.841Z" fill="#7B61FF"/>
<path fill-rule="evenodd" clip-rule="evenodd" d="M176.886 355.639C176.133 356.93 174.679 358.404 173.072 359.923C169.44 363.367 164.833 366.792 162.719 368.488C161.278 369.653 161.242 371.689 162.649 373.035C164.057 374.381 166.369 374.522 167.817 373.36C170.394 371.284 176.497 366.74 180.421 362.59C182.436 360.458 183.881 358.355 184.395 356.661C184.891 354.996 184.541 353.643 183.745 352.496C182.907 351.29 181.313 350.203 178.917 349.46C176.285 348.646 172.297 348.096 168.113 346.97C164.602 346.027 160.893 344.66 158.046 342.029C156.615 340.702 154.301 340.586 152.883 341.777C151.467 342.959 151.469 344.999 152.903 346.318C158.238 351.261 165.716 353.122 171.714 354.355C173.502 354.721 175.673 355.298 176.886 355.639Z" fill="black"/>
<path fill-rule="evenodd" clip-rule="evenodd" d="M86.9475 325.796C104.554 341.878 125.753 355.553 149.05 359.228C157.607 360.576 165.986 359.857 174.566 359.197C175.32 359.139 175.817 358.579 175.672 357.949C175.53 357.321 174.801 356.854 174.05 356.913C165.73 357.554 157.61 358.284 149.32 356.976C126.374 353.358 105.586 339.711 88.3324 323.806C88.4372 323.659 88.5448 323.512 88.6524 323.365C91.0188 320.135 91.2596 314.681 90.0281 308.605C88.2434 299.785 83.4537 289.642 78.4566 283.493C76.1528 280.656 73.7495 278.652 71.5939 277.847C69.7983 277.176 68.114 277.214 66.6185 278.086C65.3871 278.807 64.5272 279.89 64.0256 281.278C63.3574 283.131 63.328 285.561 63.8117 288.326C65.6011 298.556 74.3652 313.506 79.7464 318.899C81.4319 320.589 83.1563 322.264 84.9231 323.92C84.2765 324.857 83.6547 325.75 82.9612 326.547C81.9431 327.716 80.7787 328.668 79.0731 329.153C75.9259 330.049 72.5214 329.535 69.1957 328.339C63.8702 326.427 58.7502 322.782 55.0394 319.815C34.1676 303.125 27.1028 280.932 25.4102 259.919C23.6964 238.667 27.4863 218.599 28.3429 206.442C28.3853 205.816 27.7987 205.228 27.033 205.134C26.2681 205.036 25.6097 205.466 25.5645 206.091C24.7042 218.315 20.913 238.491 22.6337 259.851C24.3756 281.45 31.7506 304.231 53.2047 321.387C57.1541 324.542 62.6292 328.392 68.2959 330.429C72.3033 331.866 76.4069 332.408 80.1961 331.329C82.4054 330.7 83.9579 329.507 85.2723 327.998C85.8615 327.322 86.4049 326.576 86.9475 325.796ZM86.3205 321.927C88.3612 319.012 88.3763 314.149 87.2859 308.77C85.5711 300.295 80.9922 290.547 76.1923 284.637C74.5828 282.658 72.9734 281.121 71.4315 280.281C70.3178 279.672 69.2681 279.472 68.3668 279.999C67.3295 280.606 66.7539 281.629 66.4702 282.914C66.1413 284.394 66.2113 286.206 66.5647 288.216C68.2809 298.027 76.6644 312.376 81.824 317.546C83.293 319.017 84.7933 320.479 86.3205 321.927Z" fill="black" stroke="black" stroke-width="5"/>
<path fill-rule="evenodd" clip-rule="evenodd" d="M200.932 85.5548C207.372 71.6896 212.929 57.0747 223.566 45.7678C224.197 45.0926 224.167 44.0345 223.492 43.3971C222.814 42.766 221.755 42.7941 221.117 43.4667C210.233 55.0386 204.472 69.9522 197.885 84.1404C197.491 84.9774 197.861 85.9788 198.703 86.3673C199.542 86.7619 200.538 86.3919 200.932 85.5548Z" fill="black"/>
<path fill-rule="evenodd" clip-rule="evenodd" d="M202.741 86.4059L202.741 86.4059C201.887 88.2211 199.714 89.0485 197.858 88.18C196.025 87.3301 195.206 85.1436 196.072 83.2943C197.031 81.2285 197.977 79.134 198.93 77.0261C204.434 64.8447 210.141 52.2164 219.66 42.0962L219.665 42.091C221.064 40.6137 223.381 40.5611 224.855 41.9334L224.864 41.9427L224.864 41.9427C226.342 43.3378 226.407 45.6561 225.027 47.1331L225.022 47.138C216.301 56.4085 211.099 67.9423 205.772 79.7524C204.775 81.962 203.775 84.1812 202.745 86.397L202.741 86.4059ZM197.884 84.1402C197.49 84.9772 197.86 85.9786 198.702 86.3671C199.541 86.7617 200.538 86.3916 200.932 85.5546C201.94 83.383 202.927 81.193 203.915 79.0001C209.236 67.1924 214.594 55.3036 223.565 45.7676C224.196 45.0923 224.166 44.0342 223.491 43.3969C222.814 42.7657 221.754 42.7939 221.117 43.4665C211.846 53.3226 206.293 65.6029 200.779 77.7944C199.819 79.9168 198.861 82.0364 197.884 84.1402Z" fill="black"/>
<path fill-rule="evenodd" clip-rule="evenodd" d="M179.988 77.9333C177.861 71.8113 176.918 65.73 177.931 59.3163C178.076 58.4003 177.449 57.5429 176.535 57.3935C175.619 57.2503 174.758 57.8766 174.615 58.7864C173.513 65.7604 174.506 72.3678 176.817 79.0227C177.12 79.8998 178.076 80.3673 178.953 80.0622C179.827 79.7631 180.293 78.8042 179.988 77.9333Z" fill="black"/>
<path fill-rule="evenodd" clip-rule="evenodd" d="M176.858 55.4197L176.858 55.4197C178.847 55.7448 180.225 57.6146 179.906 59.629M176.858 55.4197L176.844 55.4175L176.858 55.4197ZM179.906 59.6297C178.958 65.6366 179.827 71.3777 181.877 77.2768L179.988 77.9333L181.876 77.2721C182.548 79.1916 181.524 81.2932 179.605 81.9529C177.68 82.6197 175.589 81.5919 174.927 79.6768C172.537 72.7935 171.474 65.8483 172.64 58.4742C172.956 56.4669 174.846 55.1052 176.844 55.4175M174.615 58.7864C174.758 57.8766 175.619 57.2503 176.535 57.3935C177.449 57.5429 178.076 58.4004 177.931 59.3163C176.918 65.73 177.861 71.8113 179.988 77.9333C180.293 78.8043 179.827 79.7631 178.953 80.0623C178.076 80.3673 177.12 79.8998 176.817 79.0227C174.506 72.3678 173.513 65.7604 174.615 58.7864Z" fill="black"/>
<path fill-rule="evenodd" clip-rule="evenodd" d="M130.705 70.932C124.695 65.9328 121.028 59.6448 119.771 51.907C119.623 50.9946 118.76 50.3707 117.845 50.5201C116.932 50.6634 116.309 51.525 116.458 52.4374C117.85 61.0017 121.904 67.9697 128.559 73.5052C129.27 74.0998 130.332 73.9994 130.923 73.292C131.517 72.5787 131.419 71.5205 130.705 70.932Z" fill="black"/>
<path fill-rule="evenodd" clip-rule="evenodd" d="M119.771 51.9072C121.027 59.6449 124.694 65.933 130.705 70.9322C131.419 71.5207 131.516 72.5789 130.922 73.2922C130.332 73.9996 129.269 74.0999 128.558 73.5053C121.904 67.9699 117.85 61.0019 116.457 52.4376C116.309 51.5252 116.932 50.6636 117.845 50.5203C118.76 50.3709 119.623 50.9948 119.771 51.9072ZM117.528 48.5454C115.521 48.8639 114.158 50.7562 114.483 52.7585L117.528 48.5454ZM117.528 48.5454C119.535 48.2212 121.42 49.5881 121.745 51.5857L121.745 51.5867C122.922 58.8352 126.334 64.6944 131.981 69.3924C133.551 70.6905 133.758 73.0131 132.459 74.5721L132.457 74.5742C131.164 76.1234 128.842 76.3476 127.278 75.0414C120.261 69.2046 115.955 61.8087 114.483 52.759" fill="black"/>
<path fill-rule="evenodd" clip-rule="evenodd" d="M91.3182 135.886C92.2054 137.69 93.255 139.418 94.4722 141.03C95.0138 141.748 96.2297 143.125 97.4903 143.805C98.8312 144.535 100.214 144.575 101.363 143.628C102.888 142.37 103.364 141.043 103.3 139.831C103.24 138.665 102.628 137.507 101.577 136.486C99.5659 134.537 95.8333 133.072 93.5309 132.633C92.769 130.788 92.1831 128.874 91.7725 126.92C88.7149 112.362 98.7286 97.3194 116.003 89.9107C122.051 87.3186 131.655 88.9861 141.503 91.9658C156.838 96.6033 172.706 104.674 177.421 106.888C178.587 107.432 179.334 107.626 179.501 107.625C180.314 107.636 180.715 107.203 180.937 106.877C181.254 106.401 181.335 105.946 181.307 105.54C181.266 104.988 181.01 104.438 180.443 103.987C180.128 103.74 179.645 103.5 179.113 103.283C178.742 103.137 178.311 103.037 178.081 102.849C176.613 101.64 175.228 100.35 173.825 99.0667C169.104 94.7677 164.972 90.0675 160.964 85.0998C148.227 69.3165 134.435 53.4097 128.02 33.8309C127.732 32.9528 126.784 32.4671 125.903 32.7556C125.024 33.0379 124.543 33.9833 124.829 34.8678C131.369 54.8372 145.363 71.102 158.351 87.1994C161.761 91.4244 165.26 95.4617 169.117 99.231C161.018 95.493 149.67 90.6329 139.006 87.7657C129.522 85.215 120.552 84.313 114.673 86.8323C95.7491 94.948 85.1353 111.658 88.4874 127.601C88.8466 129.307 89.3251 130.992 89.9271 132.627C75.6211 133.977 65.0611 145.603 65.3294 160.057C65.3453 160.985 66.1122 161.721 67.0375 161.707C67.9656 161.687 68.7027 160.927 68.6868 159.999C68.4453 146.974 78.2436 136.588 91.3182 135.886ZM95.567 136.676C96.0549 137.48 96.5847 138.259 97.1526 139.018C97.4589 139.422 98.0668 140.154 98.7571 140.652C98.9196 140.767 99.1966 140.894 99.3259 140.951C99.7199 140.618 99.9653 140.33 99.9469 140.001C99.9264 139.59 99.6072 139.246 99.239 138.889C98.316 137.99 96.9102 137.217 95.567 136.676Z" fill="black"/>
<path fill-rule="evenodd" clip-rule="evenodd" d="M97.9507 139.946C97.9936 139.99 98.0374 140.033 98.082 140.077C98.0825 140.077 98.083 140.078 98.0835 140.078C98.0883 140.083 98.0932 140.088 98.0981 140.093C98.1018 140.096 98.1056 140.1 98.1093 140.103C98.3111 140.298 98.5296 140.488 98.7571 140.652C98.9197 140.766 99.1966 140.894 99.3259 140.951C99.7199 140.618 99.9653 140.33 99.9469 140.001C99.9416 139.893 99.9159 139.791 99.8743 139.691C99.828 139.581 99.762 139.474 99.6825 139.369C99.6789 139.364 99.6753 139.359 99.6717 139.355C99.5506 139.198 99.3995 139.044 99.2391 138.889C98.971 138.627 98.6621 138.377 98.3259 138.14C98.3232 138.138 98.3204 138.136 98.3177 138.134C97.4981 137.557 96.5169 137.059 95.567 136.676C96.0549 137.48 96.5848 138.259 97.1526 139.018C97.3309 139.253 97.6113 139.599 97.9507 139.946ZM101.577 136.486C102.628 137.507 103.24 138.665 103.3 139.831C103.364 141.042 102.888 142.37 101.363 143.628C100.214 144.574 98.8312 144.535 97.4904 143.805C96.2297 143.125 95.0138 141.748 94.4722 141.03C93.2551 139.418 92.2054 137.69 91.3182 135.886C78.2436 136.588 68.4453 146.974 68.6868 159.999C68.7027 160.927 67.9656 161.687 67.0376 161.707C66.1122 161.721 65.3453 160.985 65.3294 160.057C65.074 146.296 74.6335 135.098 87.8963 132.892C88.5641 132.78 89.2413 132.692 89.9272 132.627C89.6912 131.986 89.4743 131.338 89.2761 130.683C88.9684 129.668 88.7059 128.639 88.4874 127.601C85.1353 111.658 95.7491 94.9479 114.673 86.8323C120.552 84.3129 129.522 85.2149 139.006 87.7656C147.626 90.0833 156.693 93.7032 164.13 96.98C165.893 97.7569 167.565 98.5146 169.117 99.231C167.812 97.9559 166.548 96.6502 165.315 95.317C162.903 92.7088 160.607 89.9952 158.351 87.1994C157.354 85.9634 156.35 84.7264 155.345 83.4868C143.258 68.5824 130.867 53.3038 124.829 34.8678C124.543 33.9833 125.024 33.0378 125.903 32.7555C126.784 32.467 127.732 32.9527 128.02 33.8308C133.893 51.7558 145.95 66.603 157.719 81.0954C158.805 82.4325 159.888 83.7665 160.964 85.0997C164.972 90.0675 169.104 94.7676 173.825 99.0666C174.004 99.2299 174.182 99.3934 174.36 99.5567C175.582 100.677 176.8 101.794 178.081 102.849C178.242 102.98 178.501 103.068 178.769 103.16C178.884 103.199 179.001 103.239 179.113 103.283C179.645 103.5 180.128 103.74 180.443 103.986C181.01 104.438 181.266 104.988 181.307 105.54C181.335 105.946 181.254 106.401 180.937 106.877C180.715 107.203 180.314 107.636 179.501 107.625C179.334 107.626 178.587 107.432 177.421 106.888C176.808 106.6 176.006 106.213 175.041 105.747C168.588 102.633 154.843 96.0001 141.503 91.9657C131.655 88.986 122.051 87.3185 116.003 89.9106C98.7286 97.3193 88.7149 112.362 91.7726 126.92C92.1832 128.874 92.769 130.788 93.5309 132.633C95.8333 133.072 99.5659 134.537 101.577 136.486ZM95.007 130.922C96.0953 131.211 97.3084 131.639 98.4862 132.17C100.065 132.883 101.732 133.851 102.969 135.05L102.969 135.051C104.268 136.311 105.203 137.916 105.297 139.726C105.398 141.646 104.588 143.56 102.635 145.171L102.634 145.172C100.694 146.77 98.3893 146.571 96.537 145.563C94.8913 144.674 93.4665 143.018 92.8763 142.235M95.007 130.922C94.4715 129.488 94.0457 128.012 93.7298 126.509C90.9361 113.207 100.048 98.9299 116.791 91.7488C119.356 90.6494 122.869 90.3871 127.117 90.8376C131.33 91.2843 136.059 92.4081 140.924 93.88L140.924 93.8801C154.095 97.8632 167.671 104.413 174.15 107.538C175.127 108.01 175.943 108.403 176.571 108.698L176.575 108.7C177.222 109.002 177.774 109.216 178.21 109.36C178.427 109.432 178.628 109.49 178.806 109.532C178.923 109.56 179.19 109.622 179.481 109.625C181.213 109.645 182.159 108.635 182.59 108.003L182.596 107.995L182.602 107.986C183.184 107.112 183.358 106.212 183.302 105.402L183.302 105.39C183.218 104.275 182.685 103.215 181.688 102.422L181.682 102.417L181.676 102.412C181.134 101.987 180.436 101.663 179.868 101.431L179.859 101.428L179.849 101.424C179.71 101.369 179.576 101.322 179.476 101.288C179.449 101.279 179.425 101.27 179.403 101.263C179.331 101.239 179.281 101.222 179.231 101.203C179.23 101.203 179.229 101.202 179.228 101.202C178.037 100.214 176.898 99.1702 175.715 98.0851C175.536 97.9213 175.356 97.7565 175.175 97.5909L175.172 97.5878C170.556 93.385 166.496 88.7714 162.52 83.8439L162.52 83.8437C161.451 82.519 160.378 81.1963 159.304 79.8736C147.493 65.3245 135.672 50.7628 129.921 33.2081L129.92 33.2075C129.291 31.2903 127.224 30.2223 125.286 30.8529C123.345 31.4793 122.304 33.5601 122.926 35.4831L122.929 35.4903C129.087 54.295 141.71 69.8549 153.754 84.7014C154.773 85.9573 155.788 87.208 156.794 88.4552L156.794 88.4555C158.153 90.139 159.53 91.7982 160.942 93.4267C154.314 90.6319 146.776 87.7837 139.525 85.8342C134.698 84.536 129.942 83.6401 125.598 83.4007C121.275 83.1625 117.218 83.5657 113.885 84.994L113.885 84.9942C94.3863 93.3562 82.9216 110.85 86.5302 128.013L86.5303 128.014C86.7393 129.006 86.9869 129.993 87.2741 130.969C73.2046 133.451 63.058 145.423 63.3297 160.093C63.3656 162.132 65.0489 163.736 67.0671 163.707L67.0671 163.707L67.0802 163.706C69.1009 163.663 70.7214 162.002 70.6865 159.965L70.6864 159.962C70.4732 148.458 78.7811 139.209 90.1514 137.985C90.9489 139.46 91.8559 140.884 92.8759 142.235" fill="black"/>
<defs>
<clipPath id="clip0_947_3392">
<rect width="147.768" height="147.768" fill="white" transform="translate(130.979 90.3164)"/>
</clipPath>
</defs>
</svg>
