<svg width="16" height="16" viewBox="0 0 16 16" fill="none" xmlns="http://www.w3.org/2000/svg">
<g clip-path="url(#clip0_903_1651)">
<path fill-rule="evenodd" clip-rule="evenodd" d="M4.66732 1.8335C3.10251 1.8335 1.83398 3.10202 1.83398 4.66683V11.3335C1.83398 12.8983 3.10251 14.1668 4.66732 14.1668H11.334C12.8988 14.1668 14.1673 12.8983 14.1673 11.3335V4.66683C14.1673 3.10202 12.8988 1.8335 11.334 1.8335H4.66732ZM0.833984 4.66683C0.833984 2.54974 2.55023 0.833496 4.66732 0.833496H11.334C13.4511 0.833496 15.1673 2.54974 15.1673 4.66683V11.3335C15.1673 13.4506 13.4511 15.1668 11.334 15.1668H4.66732C2.55023 15.1668 0.833984 13.4506 0.833984 11.3335V4.66683ZM11.1673 4.3335C11.1673 4.05735 11.3912 3.8335 11.6673 3.8335H11.674C11.9501 3.8335 12.174 4.05735 12.174 4.3335C12.174 4.60964 11.9501 4.8335 11.674 4.8335H11.6673C11.3912 4.8335 11.1673 4.60964 11.1673 4.3335ZM8.34729 5.8281C7.89649 5.76125 7.43609 5.83825 7.03158 6.04815C6.62706 6.25804 6.29903 6.59014 6.09414 6.99722C5.88924 7.40429 5.81793 7.86561 5.89033 8.31555C5.96273 8.76549 6.17516 9.18114 6.49741 9.5034C6.81966 9.82564 7.23532 10.0381 7.68526 10.1105C8.1352 10.1829 8.59652 10.1116 9.00359 9.90667C9.41066 9.70178 9.74277 9.37375 9.95266 8.96923C10.1626 8.56472 10.2396 8.10431 10.1727 7.65352C10.1045 7.19368 9.89025 6.76797 9.56154 6.43926C9.23284 6.11056 8.80712 5.89629 8.34729 5.8281ZM6.57101 5.16052C7.16222 4.85375 7.83511 4.74121 8.49398 4.83891C9.16604 4.93857 9.78823 5.25174 10.2686 5.73216C10.7491 6.21257 11.0622 6.83477 11.1619 7.50683C11.2596 8.16569 11.1471 8.83859 10.8403 9.4298C10.5335 10.021 10.0481 10.5005 9.45318 10.7999C8.85823 11.0994 8.184 11.2036 7.52639 11.0978C6.86878 10.992 6.26129 10.6815 5.79031 10.2105C5.31933 9.73952 5.00885 9.13202 4.90303 8.47442C4.79721 7.81681 4.90144 7.14258 5.2009 6.54763C5.50036 5.95267 5.97979 5.46729 6.57101 5.16052Z" fill="black"/>
</g>
<defs>
<clipPath id="clip0_903_1651">
<rect width="16" height="16" fill="white"/>
</clipPath>
</defs>
</svg>
