<svg width="34" height="31" viewBox="0 0 34 31" fill="none" xmlns="http://www.w3.org/2000/svg">
<path d="M14.5765 20.5992C17.0978 21.713 12.935 27.1932 14.4384 28.2812C15.9417 29.3692 19.3257 20.2577 20.9738 20.5616C22.6219 20.8654 29.3077 21.2862 29.9881 20.1947C31.8029 17.2837 32.507 6.53178 30.5319 5.69158C23.8152 2.83429 10.487 1.18496 7.87021 1.51384C5.25337 1.84273 1.65241 12.1312 2.3822 15.1053C3.112 18.0795 11.4249 19.2068 14.5765 20.5992Z" stroke="black" stroke-width="2"/>
<path d="M22.8517 9.68337C23.4616 9.70238 24.7768 9.60259 25.3807 9.07217M25.4683 8.98664C25.4391 8.96057 25.4119 9.04482 25.3807 9.07217M25.4683 8.98664C27.1296 10.4724 25.6407 8.79143 25.3807 9.07217M25.4683 8.98664L24.1544 16.1135M22.5502 15.8178L26.026 16.4586" stroke="black" stroke-width="2" stroke-linecap="round" stroke-linejoin="round"/>
<path d="M8.61025 9.42686C8.91571 10.123 11.1041 13.23 12.2828 14.6631C16.8747 11.5586 17.6354 10.7865 17.8521 9.61096C18.289 7.24103 15.8392 7.11226 15.187 7.29595C14.6652 7.44291 13.5293 7.9019 13.1219 8.43468C13.1219 8.43468 11.6856 6.29591 10.4026 6.41364C8.20098 6.61565 8.17482 8.43448 8.61025 9.42686Z" stroke="#FF8677" stroke-width="2" stroke-linejoin="round"/>
<path d="M11.5954 13.5974L11.6033 6.85821M12.7918 14.1958L13.2101 8.0798M14.5389 12.9926L15.0444 7.49307M16.377 11.298L16.5195 7.76509M10.2041 11.6851L10.1273 6.58667" stroke="#FF8677" stroke-width="2" stroke-linecap="round" stroke-linejoin="round"/>
</svg>
