<svg width="1046" height="192" viewBox="0 0 1046 192" fill="none" xmlns="http://www.w3.org/2000/svg">
<path d="M913.035 192V171.13H931.984C934.982 171.13 937.658 170.702 940.014 169.846C942.369 169.204 944.617 167.492 946.758 164.709C949.113 161.926 951.576 157.646 954.145 151.866L965.386 127.144L913.999 0.963272H941.619L978.554 99.5318L1018.06 0.963272H1046L978.554 154.756C974.914 162.89 971.595 169.418 968.598 174.341C965.814 179.264 962.816 183.01 959.605 185.579C956.607 188.147 953.074 189.86 949.006 190.716C945.152 191.572 940.549 192 935.196 192H913.035Z" fill="black"/>
<path d="M830.036 135.171C818.045 135.171 808.196 132.281 800.488 126.502C792.994 120.722 787.427 112.803 783.787 102.742C780.361 92.6823 778.648 81.1237 778.648 68.0669C778.648 54.5819 780.468 42.8094 784.108 32.7492C787.748 22.4749 793.315 14.4482 800.809 8.6689C808.517 2.88963 818.259 0 830.036 0C837.315 0 843.525 1.07024 848.663 3.21071C853.802 5.13713 858.084 7.59866 861.51 10.5953C864.936 13.592 867.72 16.6957 869.861 19.9064C872.002 22.903 873.501 25.5786 874.357 27.9331H874.999V0.963217H902.299V132.281H879.496L874.999 108.843H874.357C873.501 111.197 872.002 113.873 869.861 116.87C867.72 119.866 864.829 122.756 861.189 125.538C857.763 128.321 853.481 130.569 848.342 132.281C843.204 134.207 837.101 135.171 830.036 135.171ZM840.634 112.375C849.199 112.375 855.943 110.555 860.868 106.916C865.793 103.064 869.325 97.8194 871.466 91.1839C873.608 84.5485 874.678 76.9498 874.678 68.3879C874.678 59.1839 873.501 51.2642 871.145 44.6288C869.004 37.9933 865.471 32.9632 860.547 29.5385C855.622 25.8997 848.985 24.0803 840.634 24.0803C831.856 24.0803 824.79 26.1137 819.437 30.1806C814.298 34.0334 810.551 39.2776 808.196 45.913C806.055 52.5485 804.984 59.9331 804.984 68.0669C804.984 76.4147 806.055 84.0134 808.196 90.8629C810.551 97.4983 814.298 102.742 819.437 106.595C824.79 110.448 831.856 112.375 840.634 112.375Z" fill="black"/>
<path d="M607.427 132.281L574.668 5.77931V0.642181H600.683L626.376 109.806H627.019L657.851 0.642181H681.296L713.092 109.806H713.735L739.107 0.642181H765.122V5.77931L732.041 132.281H694.464L670.055 46.8763H669.413L645.325 132.281H607.427Z" fill="black"/>
<path d="M489.42 135.171C477.43 135.171 467.581 132.281 459.873 126.502C452.379 120.722 446.812 112.803 443.172 102.742C439.746 92.6823 438.033 81.1237 438.033 68.0669C438.033 54.5819 439.853 42.8094 443.493 32.7492C447.133 22.4749 452.7 14.4482 460.194 8.6689C467.902 2.88963 477.644 0 489.42 0C496.7 0 502.91 1.07024 508.048 3.21071C513.187 5.13713 517.469 7.59866 520.895 10.5953C524.321 13.592 527.104 16.6957 529.245 19.9064C531.387 22.903 532.885 25.5786 533.742 27.9331H534.384V0.963217H561.684V132.281H538.881L534.384 108.843H533.742C532.885 111.197 531.387 113.873 529.245 116.87C527.104 119.866 524.214 122.756 520.574 125.538C517.148 128.321 512.866 130.569 507.727 132.281C502.588 134.207 496.486 135.171 489.42 135.171ZM500.019 112.375C508.584 112.375 515.328 110.555 520.253 106.916C525.177 103.064 528.71 97.8194 530.851 91.1839C532.992 84.5485 534.063 76.9498 534.063 68.3879C534.063 59.1839 532.885 51.2642 530.53 44.6288C528.389 37.9933 524.856 32.9632 519.932 29.5385C515.007 25.8997 508.369 24.0803 500.019 24.0803C491.24 24.0803 484.175 26.1137 478.822 30.1806C473.683 34.0334 469.936 39.2776 467.581 45.913C465.44 52.5485 464.369 59.9331 464.369 68.0669C464.369 76.4147 465.44 84.0134 467.581 90.8629C469.936 97.4983 473.683 102.742 478.822 106.595C484.175 110.448 491.24 112.375 500.019 112.375Z" fill="black"/>
<path d="M328.886 188.468V163.425H390.551V105.953H389.908C389.48 106.809 388.41 108.843 386.697 112.054C384.984 115.05 382.307 118.368 378.668 122.007C375.242 125.646 370.638 128.856 364.857 131.639C359.29 134.207 352.332 135.492 343.981 135.492C331.349 135.492 320.857 132.602 312.507 126.823C304.156 121.044 297.947 113.124 293.879 103.064C290.025 93.0034 288.098 81.4448 288.098 68.388C288.098 54.903 290.132 43.1305 294.2 33.0703C298.268 22.796 304.477 14.8763 312.828 9.31109C321.178 3.74588 331.67 0.963272 344.302 0.963272C352.867 0.963272 360.04 2.35457 365.821 5.13718C371.602 7.91979 376.098 11.2375 379.31 15.0904C382.736 18.9432 385.198 22.475 386.697 25.6857C388.41 28.8964 389.373 30.9298 389.587 31.786H390.23V0.963272H417.85V148.977C417.85 158.395 416.673 165.993 414.317 171.773C411.962 177.552 408.215 181.726 403.076 184.294C398.152 187.077 391.514 188.468 383.164 188.468H328.886ZM351.368 112.375C359.719 112.375 366.784 110.555 372.565 106.916C378.346 103.278 382.629 98.1405 385.412 91.5051C388.41 84.8696 389.908 77.1639 389.908 68.388C389.908 59.8261 388.517 52.2275 385.733 45.592C382.95 38.9566 378.775 33.9265 373.208 30.5017C367.855 26.8629 361.003 25.0435 352.653 25.0435C343.232 25.0435 335.631 27.077 329.85 31.1439C324.283 35.2108 320.215 40.5619 317.645 47.1974C315.29 53.8328 314.112 60.8964 314.112 68.388C314.112 75.8796 315.183 83.0502 317.324 89.8997C319.679 96.5351 323.533 101.993 328.886 106.274C334.453 110.341 341.947 112.375 351.368 112.375Z" fill="black"/>
<path d="M208.116 135.492C193.342 135.492 181.244 132.281 171.823 125.86C162.402 119.224 155.444 110.769 150.947 100.495C146.451 90.0067 144.203 79.1973 144.203 68.0669C143.989 55.4381 146.344 43.9866 151.269 33.7124C156.407 23.4381 163.687 15.3044 173.108 9.31106C182.743 3.31775 194.198 0.321091 207.473 0.321091C219.035 0.321091 229.313 2.88965 238.306 8.02677C247.298 12.9498 254.471 20.0134 259.824 29.2174C265.177 38.2074 268.067 48.9097 268.496 61.3244C268.71 61.9666 268.817 63.2508 268.817 65.1773C268.817 66.8896 268.817 68.388 268.817 69.6722H169.575C169.575 83.3712 172.894 94.0736 179.532 101.779C186.383 109.271 195.804 113.017 207.794 113.017C216.787 113.017 224.388 110.769 230.598 106.274C237.021 101.565 240.982 95.3578 242.481 87.6522H268.496C267.211 96.6421 263.999 104.776 258.86 112.054C253.722 119.331 246.87 125.11 238.306 129.391C229.741 133.458 219.678 135.492 208.116 135.492ZM170.539 56.5084H241.838C241.624 54.1539 240.982 51.0502 239.911 47.1973C239.055 43.3445 237.342 39.5987 234.773 35.9599C232.203 32.107 228.671 28.8963 224.174 26.3278C219.678 23.7592 213.897 22.4749 206.831 22.4749C200.408 22.4749 194.948 23.5452 190.451 25.6856C185.955 27.8261 182.315 30.7157 179.532 34.3545C176.748 37.7793 174.607 41.5251 173.108 45.592C171.823 49.4448 170.967 53.0836 170.539 56.5084Z" fill="black"/>
<path d="M105.986 0.963272H132.322V5.77932L85.11 132.281H47.5331L0 6.10039V0.963272H26.0148L66.4822 110.127H67.1245L105.986 0.963272Z" fill="black"/>
</svg>
