<svg width="63" height="63" viewBox="0 0 63 63" fill="none" xmlns="http://www.w3.org/2000/svg">
<path fill-rule="evenodd" clip-rule="evenodd" d="M17.4654 30.0277C17.3382 29.7933 17.2096 29.5584 17.0793 29.3245C15.7498 26.9427 14.4355 24.5635 13.2761 22.091C12.9951 21.4921 12.4764 20.3384 11.8192 19.625C11.3491 19.1148 10.7993 18.7932 10.2361 18.6964C9.87727 18.6345 9.31929 18.6539 8.86304 19.2382C8.78625 19.3365 8.67696 19.5122 8.58217 19.7501C8.4292 20.135 8.24351 20.8526 8.22347 20.9536C7.92578 22.4246 7.64728 23.8328 7.47095 25.3242C7.30849 26.6965 7.06829 28.0559 6.92444 29.4318C6.7092 31.4903 6.62559 33.5096 6.77209 35.5776C6.82628 36.3453 7.49413 36.9242 8.26192 36.87C9.02904 36.8156 9.60832 36.1486 9.55412 35.3808C9.41954 33.4762 9.49982 31.6178 9.69873 29.722C9.8409 28.3588 10.0796 27.0113 10.2404 25.6515C10.3452 24.767 10.4888 23.9132 10.6506 23.057L10.7507 23.2751C11.9386 25.8074 13.2825 28.2446 14.644 30.6835C15.1533 31.5966 15.6317 32.5222 16.1557 33.4274C16.1885 33.5323 16.3407 34.0136 16.4337 34.1909C16.5882 34.4862 16.7914 34.687 16.9829 34.8142C17.4692 35.1383 18.0307 35.2456 18.6893 34.791C19.1823 34.4506 19.6005 33.8167 19.8402 32.98C20.1699 31.8303 20.198 30.19 20.3189 29.4671C21.0834 24.8932 21.4827 20.2262 22.5909 15.7161C22.7747 14.9687 22.3172 14.2129 21.5698 14.0291C20.8223 13.8459 20.0658 14.3032 19.8827 15.0508C18.7574 19.6286 18.3437 24.3641 17.5674 29.0074C17.5267 29.2545 17.4991 29.6158 17.4654 30.0277Z" fill="black"/>
<path fill-rule="evenodd" clip-rule="evenodd" d="M34.7013 15.3792C33.0665 15.3164 31.4448 15.2015 29.9117 15.8678C28.3078 16.5657 27.1777 17.9471 26.4083 19.6366C25.4267 21.792 25.0393 24.4599 24.7269 26.35C24.5654 27.3288 24.2179 28.6554 24.1361 29.9001C24.0662 30.9704 24.1942 31.9876 24.615 32.8014C25.2763 34.0798 26.7231 34.6319 28.4265 34.483C30.3944 34.311 32.6389 33.21 33.4052 32.4019C33.935 31.8438 33.912 30.9601 33.353 30.4307C32.7948 29.9008 31.9118 29.9241 31.3819 30.4822C30.8959 30.9947 29.4319 31.5954 28.1833 31.705C27.9046 31.729 27.6364 31.7285 27.3987 31.676C27.275 31.649 27.149 31.6294 27.0925 31.5209C26.8166 30.9864 26.8802 30.2744 26.9706 29.5633C27.0958 28.5719 27.3518 27.5747 27.4793 26.8042C27.7582 25.1138 28.069 22.72 28.9464 20.7923C29.4171 19.7588 30.0426 18.8529 31.0246 18.426C32.1638 17.9307 33.3778 18.1197 34.5938 18.1664C35.3628 18.1965 36.0114 17.596 36.0408 16.8268C36.0708 16.0579 35.4703 15.4092 34.7013 15.3792Z" fill="black"/>
<path fill-rule="evenodd" clip-rule="evenodd" d="M32.4443 22.3735C31.0774 22.6524 29.6243 22.9247 28.2309 22.9905C27.462 23.0269 26.8671 23.6804 26.9028 24.4491C26.9392 25.218 27.5926 25.8128 28.3615 25.7764C29.8962 25.7042 31.497 25.4138 33.0015 25.107C33.7554 24.953 34.2432 24.2157 34.0892 23.4618C33.9355 22.7072 33.1986 22.2203 32.4443 22.3735Z" fill="black"/>
<path fill-rule="evenodd" clip-rule="evenodd" d="M48.3315 28.0169C47.719 26.5412 47.0455 25.0673 46.2833 23.6755C46.221 23.5624 45.4017 22.3238 44.8537 21.7868C44.4841 21.4248 44.1074 21.2641 43.8727 21.2162C43.1897 21.0769 42.6749 21.3122 42.3205 21.876C41.9812 22.4167 41.7357 23.0131 41.5436 23.6398C41.1242 21.4889 40.805 19.3111 40.8706 17.1412C40.876 16.9619 40.863 16.8733 40.8613 16.8575C40.8017 16.3929 40.5822 16.1739 40.5056 16.0906C40.1295 15.6807 39.7023 15.5994 39.3056 15.6492C39.2572 15.6548 38.1893 15.784 38.0872 16.9188C38.0788 17.0104 38.0444 17.67 38.0157 17.923C37.9913 18.1431 38.0192 18.3566 38.0899 18.5518C38.1998 21.4721 38.8411 24.3955 39.4437 27.2429C39.5739 27.8582 39.6351 28.4699 39.6067 29.0978C39.5986 29.2813 39.4987 29.6715 39.4795 29.872C39.4476 30.2116 39.5127 30.4656 39.5625 30.6005C39.8213 31.3027 40.3376 31.5244 40.875 31.5294C41.1046 31.5319 41.5702 31.5193 42.0142 30.9866C43.0125 29.7902 43.412 28.2535 43.7131 26.6742C43.8023 26.2071 43.8795 25.7363 43.9791 25.2782C44.8038 26.8204 45.5153 28.4606 46.1604 30.0797C46.2313 30.2576 46.9946 31.9122 47.244 32.2001C47.8673 32.9221 48.5784 32.7411 48.9017 32.6025C49.3948 32.3904 49.8775 31.9148 50.2253 31.2273C50.6746 30.3374 50.9434 29.0056 51.0902 28.4818C52.0783 24.9558 53.073 21.2583 53.3344 17.6001C53.3896 16.8323 52.811 16.1648 52.0432 16.1096C51.2754 16.0544 50.6077 16.6338 50.5527 17.4009C50.304 20.8749 49.3421 24.3819 48.4043 27.7293C48.3828 27.8066 48.3587 27.9042 48.3315 28.0169Z" fill="black"/>
<path fill-rule="evenodd" clip-rule="evenodd" d="M57.2811 17.8397C57.0483 20.3245 56.8226 22.7882 56.4021 25.2877C56.2744 26.0471 56.7866 26.7672 57.546 26.8949C58.3048 27.0225 59.0249 26.5102 59.1526 25.7508C59.7459 22.2256 59.9614 18.7721 60.3406 15.2316C60.488 13.8634 59.2046 13.6677 59.1252 13.6579C58.9502 13.6364 57.9865 13.5518 57.6318 14.6019C57.6099 14.6659 57.5131 15.1365 57.4661 15.3161C57.3576 15.727 57.228 16.1212 57.0827 16.5216C56.9151 16.9829 57.0056 17.4752 57.2811 17.8397Z" fill="black"/>
<path fill-rule="evenodd" clip-rule="evenodd" d="M56.509 32.6764C56.7706 32.3058 56.8462 31.8141 56.6673 31.3604C56.3843 30.6443 55.5738 30.293 54.8576 30.576C54.1963 30.8371 53.9386 31.3233 53.8163 31.9772C53.6748 32.7339 54.1747 33.4632 54.9316 33.6041C55.6233 33.7337 56.2923 33.3261 56.509 32.6764Z" fill="black"/>
<path fill-rule="evenodd" clip-rule="evenodd" d="M23.4536 50.6817C23.4059 50.352 23.3663 50.0911 23.3552 50.0345C22.8266 47.3382 22.1832 44.6402 21.3887 42.0097C21.1661 41.2727 20.3875 40.8554 19.6505 41.078C18.9135 41.3006 18.4962 42.0792 18.7188 42.8162C19.4867 45.3576 20.1073 47.9655 20.6184 50.5712C20.6574 50.7698 20.8013 52.473 21.042 53.2389C21.2605 53.9324 21.6924 54.2887 21.9629 54.4175C22.3924 54.6221 23.1459 54.6766 23.951 54.089C25.0021 53.3223 26.7845 50.9595 27.0791 50.567C27.62 49.8445 28.1285 49.0683 28.6118 48.3099C29.5283 46.8711 30.2687 45.3478 30.9862 43.8042C31.311 43.1059 31.0074 42.2763 30.3092 41.9514C29.6113 41.6274 28.781 41.9308 28.457 42.6287C27.7913 44.0604 27.1101 45.4765 26.2599 46.8109C25.8135 47.5105 25.3455 48.2284 24.8465 48.8952C24.6963 49.0949 24.0958 49.9261 23.4536 50.6817Z" fill="black"/>
</svg>
