<svg width="289" height="247" viewBox="0 0 289 247" fill="none" xmlns="http://www.w3.org/2000/svg">
<path d="M239.695 74.0378C239.695 112.99 197.785 144.568 158.833 144.568C119.88 144.568 88.3027 112.99 88.3027 74.0378C88.3027 35.0851 102.257 5.33146e-07 141.209 5.33146e-07C180.162 5.33146e-07 239.695 35.0851 239.695 74.0378Z" fill="#FF7D7D"/>
<path fill-rule="evenodd" clip-rule="evenodd" d="M114.778 75.299C114.831 70.5713 113.314 65.8708 109.798 61.439C97.7918 46.3058 81.549 44.7116 65.2224 50.2504C42.2764 58.04 19.2321 80.4312 9.59359 96.015C8.46798 97.8362 9.03308 100.225 10.8506 101.352C12.6703 102.474 15.0608 101.913 16.1864 100.092C25.123 85.6423 46.4343 64.8129 67.7124 57.5924C80.872 53.123 94.049 54.0598 103.728 66.2567C105.821 68.895 106.807 71.6695 106.941 74.4718C105.02 74.3241 103.109 74.2136 101.215 74.1427C93.6309 73.8655 74.0758 76.7925 61.6393 83.7205C51.7993 89.2043 46.3597 97.1165 50.7353 107.101C53.2387 112.819 58.4654 115.665 65.2321 115.898C73.5767 116.184 84.555 112.224 94.0113 105.796C101.876 100.454 108.655 93.4405 112.13 86.055C112.617 85.0203 113.042 83.9774 113.404 82.9312C150.082 87.6366 190.115 106.762 214.584 133.158C216.037 134.726 218.488 134.818 220.059 133.363C221.627 131.91 221.718 129.456 220.265 127.888C194.744 100.355 153.068 80.3453 114.778 75.299ZM105.393 82.1289C103.899 82.0249 102.41 81.9437 100.933 81.8913C94.1262 81.6415 76.576 84.2726 65.4116 90.4912C59.504 93.783 55.2106 97.9999 57.835 103.995C59.122 106.935 62.0196 108.033 65.4977 108.151C70.1094 108.31 75.6538 106.781 81.1746 104.215C89.7368 100.229 98.229 93.7036 103.105 86.309C104.006 84.9432 104.78 83.545 105.393 82.1289Z" fill="#35312B"/>
<path fill-rule="evenodd" clip-rule="evenodd" d="M159.91 127.366C177.38 123.529 199.109 127.178 215.827 133.791C217.815 134.577 220.068 133.603 220.857 131.613C221.643 129.625 220.667 127.369 218.679 126.583C200.612 119.439 177.122 115.648 158.247 119.796C156.159 120.256 154.836 122.325 155.296 124.414C155.756 126.502 157.821 127.826 159.91 127.366Z" fill="#35312B"/>
<path fill-rule="evenodd" clip-rule="evenodd" d="M219.491 126.613C207.93 117.528 199.673 99.7412 197.723 85.1227C197.438 83.0006 195.485 81.5101 193.367 81.7938C191.248 82.0774 189.756 84.0266 190.038 86.1502C192.236 102.584 201.703 122.493 214.702 132.709C216.381 134.03 218.822 133.737 220.142 132.055C221.462 130.372 221.17 127.935 219.491 126.613Z" fill="#35312B"/>
<path d="M166.471 167.617V157.483H169.621C170.473 157.483 171.193 157.567 171.781 157.735C172.369 157.903 172.813 158.191 173.113 158.599C173.425 159.007 173.581 159.583 173.581 160.327C173.581 160.783 173.497 161.209 173.329 161.605C173.161 162.001 172.897 162.325 172.537 162.577C172.189 162.817 171.733 162.937 171.169 162.937C171.637 162.937 172.003 163.027 172.267 163.207C172.531 163.375 172.717 163.597 172.825 163.873C172.945 164.149 173.017 164.449 173.041 164.773C173.077 165.097 173.095 165.415 173.095 165.727C173.095 166.039 173.113 166.315 173.149 166.555C173.185 166.795 173.269 166.963 173.401 167.059C173.533 167.155 173.743 167.155 174.031 167.059V167.653C173.971 167.701 173.851 167.743 173.671 167.779C173.503 167.815 173.317 167.803 173.113 167.743C172.909 167.683 172.735 167.545 172.591 167.329C172.447 167.113 172.375 166.783 172.375 166.339C172.375 165.643 172.345 165.085 172.285 164.665C172.237 164.245 172.123 163.927 171.943 163.711C171.775 163.495 171.505 163.345 171.133 163.261C170.761 163.177 170.263 163.135 169.639 163.135C169.027 163.135 168.247 163.141 167.299 163.153V167.617H166.471ZM167.299 162.487H169.945C170.605 162.487 171.145 162.427 171.565 162.307C171.997 162.175 172.315 161.959 172.519 161.659C172.735 161.347 172.843 160.915 172.843 160.363C172.843 159.727 172.711 159.259 172.447 158.959C172.183 158.647 171.805 158.443 171.313 158.347C170.821 158.251 170.221 158.203 169.513 158.203H167.299V162.487ZM178.252 167.797C177.472 167.797 176.824 167.611 176.308 167.239C175.804 166.867 175.426 166.393 175.174 165.817C174.922 165.229 174.802 164.623 174.814 163.999C174.814 163.351 174.946 162.745 175.21 162.181C175.474 161.617 175.858 161.167 176.362 160.831C176.878 160.483 177.502 160.309 178.234 160.309C178.846 160.309 179.386 160.447 179.854 160.723C180.334 160.987 180.718 161.365 181.006 161.857C181.294 162.337 181.456 162.913 181.492 163.585C181.504 163.645 181.51 163.717 181.51 163.801C181.51 163.885 181.51 163.963 181.51 164.035H175.606C175.606 164.959 175.834 165.697 176.29 166.249C176.758 166.801 177.412 167.077 178.252 167.077C178.864 167.077 179.392 166.915 179.836 166.591C180.292 166.267 180.574 165.829 180.682 165.277H181.492C181.408 165.769 181.216 166.207 180.916 166.591C180.616 166.963 180.238 167.257 179.782 167.473C179.326 167.689 178.816 167.797 178.252 167.797ZM175.66 163.495H180.664C180.652 163.267 180.598 163.015 180.502 162.739C180.418 162.451 180.28 162.175 180.088 161.911C179.896 161.647 179.644 161.431 179.332 161.263C179.032 161.095 178.666 161.011 178.234 161.011C177.838 161.011 177.49 161.083 177.19 161.227C176.89 161.359 176.632 161.539 176.416 161.767C176.212 161.995 176.044 162.259 175.912 162.559C175.792 162.847 175.708 163.159 175.66 163.495ZM185.242 167.779C184.57 167.779 184.012 167.611 183.568 167.275C183.124 166.939 182.794 166.489 182.578 165.925C182.362 165.349 182.254 164.713 182.254 164.017C182.254 163.285 182.362 162.637 182.578 162.073C182.806 161.509 183.142 161.065 183.586 160.741C184.042 160.405 184.594 160.237 185.242 160.237C185.602 160.237 185.92 160.285 186.196 160.381C186.472 160.477 186.718 160.603 186.934 160.759C187.15 160.915 187.33 161.095 187.474 161.299C187.63 161.491 187.75 161.701 187.834 161.929H187.852V160.309H188.698V167.617H188.014L187.87 166.105H187.834C187.738 166.321 187.612 166.531 187.456 166.735C187.312 166.927 187.132 167.107 186.916 167.275C186.7 167.431 186.454 167.551 186.178 167.635C185.902 167.731 185.59 167.779 185.242 167.779ZM185.548 167.023C186.064 167.023 186.49 166.903 186.826 166.663C187.174 166.423 187.432 166.081 187.6 165.637C187.768 165.181 187.852 164.647 187.852 164.035C187.852 163.363 187.762 162.811 187.582 162.379C187.402 161.935 187.138 161.599 186.79 161.371C186.454 161.143 186.04 161.029 185.548 161.029C184.984 161.029 184.516 161.161 184.144 161.425C183.784 161.689 183.514 162.043 183.334 162.487C183.166 162.931 183.082 163.441 183.082 164.017C183.082 164.605 183.172 165.127 183.352 165.583C183.532 166.039 183.802 166.393 184.162 166.645C184.534 166.897 184.996 167.023 185.548 167.023ZM193.146 167.797C192.45 167.797 191.856 167.629 191.364 167.293C190.884 166.957 190.518 166.507 190.266 165.943C190.014 165.379 189.888 164.749 189.888 164.053C189.888 163.345 190.014 162.709 190.266 162.145C190.53 161.581 190.902 161.137 191.382 160.813C191.874 160.477 192.468 160.309 193.164 160.309C193.656 160.309 194.076 160.393 194.424 160.561C194.772 160.729 195.048 160.933 195.252 161.173C195.456 161.413 195.606 161.641 195.702 161.857C195.81 162.061 195.882 162.205 195.918 162.289H195.954V157.483H196.8V167.617H196.116L195.972 165.853H195.936C195.9 165.913 195.822 166.051 195.702 166.267C195.594 166.471 195.432 166.693 195.216 166.933C195 167.173 194.718 167.377 194.37 167.545C194.034 167.713 193.626 167.797 193.146 167.797ZM193.254 167.023C193.746 167.023 194.19 166.909 194.586 166.681C194.994 166.453 195.318 166.117 195.558 165.673C195.798 165.217 195.918 164.677 195.918 164.053C195.918 163.429 195.804 162.901 195.576 162.469C195.36 162.025 195.06 161.689 194.676 161.461C194.292 161.221 193.86 161.101 193.38 161.101C192.78 161.101 192.282 161.245 191.886 161.533C191.49 161.809 191.19 162.175 190.986 162.631C190.794 163.075 190.698 163.549 190.698 164.053C190.698 164.545 190.782 165.025 190.95 165.493C191.13 165.949 191.406 166.321 191.778 166.609C192.162 166.885 192.654 167.023 193.254 167.023ZM204.623 167.779C203.951 167.779 203.393 167.611 202.949 167.275C202.505 166.939 202.175 166.489 201.959 165.925C201.743 165.349 201.635 164.713 201.635 164.017C201.635 163.285 201.743 162.637 201.959 162.073C202.187 161.509 202.523 161.065 202.967 160.741C203.423 160.405 203.975 160.237 204.623 160.237C204.983 160.237 205.301 160.285 205.577 160.381C205.853 160.477 206.099 160.603 206.315 160.759C206.531 160.915 206.711 161.095 206.855 161.299C207.011 161.491 207.131 161.701 207.215 161.929H207.233V160.309H208.079V167.617H207.395L207.251 166.105H207.215C207.119 166.321 206.993 166.531 206.837 166.735C206.693 166.927 206.513 167.107 206.297 167.275C206.081 167.431 205.835 167.551 205.559 167.635C205.283 167.731 204.971 167.779 204.623 167.779ZM204.929 167.023C205.445 167.023 205.871 166.903 206.207 166.663C206.555 166.423 206.813 166.081 206.981 165.637C207.149 165.181 207.233 164.647 207.233 164.035C207.233 163.363 207.143 162.811 206.963 162.379C206.783 161.935 206.519 161.599 206.171 161.371C205.835 161.143 205.421 161.029 204.929 161.029C204.365 161.029 203.897 161.161 203.525 161.425C203.165 161.689 202.895 162.043 202.715 162.487C202.547 162.931 202.463 163.441 202.463 164.017C202.463 164.605 202.553 165.127 202.733 165.583C202.913 166.039 203.183 166.393 203.543 166.645C203.915 166.897 204.377 167.023 204.929 167.023ZM212.922 167.797C212.442 167.797 212.034 167.713 211.698 167.545C211.362 167.377 211.08 167.173 210.852 166.933C210.636 166.693 210.468 166.471 210.348 166.267C210.24 166.051 210.174 165.913 210.15 165.853H210.114L209.97 167.617H209.268V157.483H210.132V162.289H210.168C210.192 162.205 210.252 162.061 210.348 161.857C210.456 161.641 210.612 161.413 210.816 161.173C211.032 160.933 211.308 160.729 211.644 160.561C211.992 160.393 212.418 160.309 212.922 160.309C213.618 160.309 214.206 160.477 214.686 160.813C215.178 161.137 215.55 161.587 215.802 162.163C216.066 162.727 216.198 163.357 216.198 164.053C216.198 164.761 216.066 165.397 215.802 165.961C215.55 166.525 215.178 166.975 214.686 167.311C214.206 167.635 213.618 167.797 212.922 167.797ZM212.814 167.023C213.414 167.023 213.9 166.885 214.272 166.609C214.656 166.321 214.932 165.949 215.1 165.493C215.28 165.025 215.37 164.545 215.37 164.053C215.37 163.549 215.274 163.075 215.082 162.631C214.89 162.175 214.596 161.809 214.2 161.533C213.804 161.245 213.306 161.101 212.706 161.101C212.226 161.101 211.794 161.221 211.41 161.461C211.026 161.689 210.72 162.025 210.492 162.469C210.264 162.901 210.15 163.429 210.15 164.053C210.15 164.677 210.27 165.217 210.51 165.673C210.75 166.117 211.068 166.453 211.464 166.681C211.872 166.909 212.322 167.023 212.814 167.023ZM220.353 167.797C219.597 167.797 218.961 167.641 218.445 167.329C217.941 167.005 217.563 166.561 217.311 165.997C217.059 165.433 216.933 164.791 216.933 164.071C216.933 163.339 217.059 162.691 217.311 162.127C217.563 161.551 217.941 161.107 218.445 160.795C218.961 160.471 219.597 160.309 220.353 160.309C221.457 160.309 222.297 160.657 222.873 161.353C223.461 162.037 223.755 162.943 223.755 164.071C223.755 164.767 223.635 165.403 223.395 165.979C223.155 166.543 222.783 166.987 222.279 167.311C221.775 167.635 221.133 167.797 220.353 167.797ZM220.353 167.059C221.025 167.059 221.547 166.909 221.919 166.609C222.291 166.309 222.549 165.931 222.693 165.475C222.849 165.007 222.927 164.533 222.927 164.053C222.927 163.561 222.849 163.087 222.693 162.631C222.549 162.163 222.291 161.779 221.919 161.479C221.547 161.179 221.025 161.029 220.353 161.029C219.693 161.029 219.171 161.179 218.787 161.479C218.403 161.779 218.133 162.163 217.977 162.631C217.833 163.087 217.761 163.561 217.761 164.053C217.761 164.533 217.833 165.007 217.977 165.475C218.133 165.931 218.403 166.309 218.787 166.609C219.171 166.909 219.693 167.059 220.353 167.059ZM227.665 167.797C227.209 167.797 226.813 167.731 226.477 167.599C226.153 167.467 225.883 167.287 225.667 167.059C225.451 166.819 225.283 166.549 225.163 166.249C225.043 165.937 224.959 165.601 224.911 165.241C224.863 164.881 224.839 164.509 224.839 164.125V160.309H225.649V164.125C225.649 164.665 225.703 165.157 225.811 165.601C225.931 166.045 226.153 166.399 226.477 166.663C226.801 166.915 227.263 167.041 227.863 167.041C228.439 167.041 228.895 166.909 229.231 166.645C229.579 166.369 229.837 166.021 230.005 165.601C230.173 165.169 230.269 164.713 230.293 164.233V160.309H231.139V167.617H230.455L230.311 165.871H230.275C230.215 166.063 230.119 166.267 229.987 166.483C229.855 166.699 229.681 166.909 229.465 167.113C229.261 167.317 229.009 167.485 228.709 167.617C228.409 167.737 228.061 167.797 227.665 167.797ZM233.955 167.617C233.583 167.617 233.337 167.509 233.217 167.293C233.109 167.077 233.055 166.819 233.055 166.519V160.831H233.847V166.915H235.557V167.617H233.955ZM231.849 160.975V160.309C232.173 160.309 232.419 160.297 232.587 160.273C232.755 160.249 232.875 160.183 232.947 160.075C233.019 159.955 233.061 159.769 233.073 159.517C233.097 159.253 233.109 158.887 233.109 158.419H233.847V160.309H235.557V160.975H231.849ZM243.618 167.797C243.162 167.797 242.766 167.731 242.43 167.599C242.106 167.467 241.836 167.287 241.62 167.059C241.404 166.819 241.236 166.549 241.116 166.249C240.996 165.937 240.912 165.601 240.864 165.241C240.816 164.881 240.792 164.509 240.792 164.125V160.309H241.602V164.125C241.602 164.665 241.656 165.157 241.764 165.601C241.884 166.045 242.106 166.399 242.43 166.663C242.754 166.915 243.216 167.041 243.816 167.041C244.392 167.041 244.848 166.909 245.184 166.645C245.532 166.369 245.79 166.021 245.958 165.601C246.126 165.169 246.222 164.713 246.246 164.233V160.309H247.092V167.617H246.408L246.264 165.871H246.228C246.168 166.063 246.072 166.267 245.94 166.483C245.808 166.699 245.634 166.909 245.418 167.113C245.214 167.317 244.962 167.485 244.662 167.617C244.362 167.737 244.014 167.797 243.618 167.797ZM251.259 167.797C250.767 167.797 250.347 167.731 249.999 167.599C249.651 167.455 249.363 167.275 249.135 167.059C248.907 166.843 248.727 166.621 248.595 166.393C248.463 166.165 248.367 165.955 248.307 165.763C248.259 165.571 248.235 165.427 248.235 165.331H249.045C249.045 165.343 249.057 165.445 249.081 165.637C249.117 165.817 249.201 166.027 249.333 166.267C249.477 166.507 249.699 166.717 249.999 166.897C250.299 167.065 250.719 167.149 251.259 167.149C251.655 167.149 252.015 167.107 252.339 167.023C252.663 166.927 252.921 166.783 253.113 166.591C253.305 166.387 253.401 166.123 253.401 165.799C253.401 165.415 253.275 165.121 253.023 164.917C252.783 164.701 252.471 164.545 252.087 164.449C251.703 164.341 251.301 164.245 250.881 164.161C250.461 164.065 250.059 163.945 249.675 163.801C249.303 163.657 248.997 163.447 248.757 163.171C248.529 162.895 248.415 162.517 248.415 162.037C248.427 161.461 248.697 160.999 249.225 160.651C249.753 160.291 250.431 160.111 251.259 160.111C251.571 160.111 251.901 160.147 252.249 160.219C252.597 160.291 252.915 160.417 253.203 160.597C253.503 160.777 253.743 161.023 253.923 161.335C254.115 161.647 254.193 162.055 254.157 162.559H253.365C253.377 162.187 253.311 161.887 253.167 161.659C253.035 161.431 252.849 161.257 252.609 161.137C252.381 161.005 252.141 160.921 251.889 160.885C251.637 160.849 251.409 160.831 251.205 160.831C250.641 160.831 250.161 160.933 249.765 161.137C249.381 161.341 249.189 161.653 249.189 162.073C249.189 162.421 249.309 162.691 249.549 162.883C249.789 163.075 250.101 163.225 250.485 163.333C250.869 163.429 251.271 163.519 251.691 163.603C252.111 163.687 252.513 163.807 252.897 163.963C253.281 164.119 253.593 164.341 253.833 164.629C254.073 164.917 254.193 165.319 254.193 165.835C254.193 166.303 254.061 166.681 253.797 166.969C253.545 167.257 253.197 167.467 252.753 167.599C252.309 167.731 251.811 167.797 251.259 167.797Z" fill="black"/>
<path d="M165.301 169.867H254.787V170.767H165.301V169.867Z" fill="black"/>
<path d="M192.973 228.174C158.87 218.615 138.975 183.214 148.536 149.103C153.313 132.059 164.076 120.209 177.893 113.798C191.723 107.382 208.655 106.398 225.76 111.192C242.997 116.023 258.128 122.067 267.751 131.12C272.548 135.633 275.965 140.885 277.6 147.106C279.236 153.33 279.104 160.578 276.714 169.105C271.928 186.18 259.495 203.363 243.962 215.07C228.424 226.783 209.916 232.923 192.973 228.174Z" stroke="black" stroke-width="1.5"/>
</svg>
