<svg width="328" height="529" viewBox="0 0 328 529" fill="none" xmlns="http://www.w3.org/2000/svg">
<path d="M328.001 294.44C328.001 368.618 267.971 428.751 193.92 428.751C119.868 428.751 73.8848 368.618 73.8848 294.44C73.8848 220.263 88.1879 158.962 162.239 158.962C236.29 158.962 328.001 220.263 328.001 294.44Z" fill="#7B61FF"/>
<g clip-path="url(#clip0_947_3392)">
<path fill-rule="evenodd" clip-rule="evenodd" d="M270.883 133.819C243.149 185.39 187.747 206.357 136.291 177.323C134.578 176.357 132.406 176.961 131.439 178.653C130.472 180.375 131.077 182.55 132.79 183.517C187.944 214.665 247.427 192.46 277.155 137.203C278.086 135.481 277.436 133.305 275.705 132.369C273.974 131.462 271.814 132.097 270.883 133.819Z" fill="black"/>
<path d="M179.594 155.206C185.323 155.206 189.967 150.562 189.967 144.833C189.967 139.104 185.323 134.459 179.594 134.459C173.865 134.459 169.221 139.104 169.221 144.833C169.221 150.562 173.865 155.206 179.594 155.206Z" fill="black"/>
<path d="M222.536 144.171C228.153 144.171 232.706 139.618 232.706 134.001C232.706 128.384 228.153 123.831 222.536 123.831C216.919 123.831 212.365 128.384 212.365 134.001C212.365 139.618 216.919 144.171 222.536 144.171Z" fill="black"/>
</g>
<path fill-rule="evenodd" clip-rule="evenodd" d="M96.1713 429.04C90.5359 431.564 84.9287 434.031 79.3596 436.716C74.6444 438.993 72.6711 444.675 74.9481 449.39C77.2251 454.106 82.8986 456.079 87.6138 453.802C93.0215 451.193 98.4672 448.802 103.941 446.345C108.723 444.201 110.857 438.585 108.713 433.803C106.569 429.031 100.953 426.896 96.1713 429.04Z" fill="#7B61FF"/>
<path fill-rule="evenodd" clip-rule="evenodd" d="M133.607 462.17C125.486 479.759 118.256 497.747 110.514 515.498C108.418 520.298 110.619 525.896 115.42 527.993C120.22 530.08 125.808 527.888 127.905 523.088C135.599 505.46 142.762 487.596 150.836 470.129C153.027 465.376 150.95 459.731 146.197 457.54C141.443 455.339 135.798 457.417 133.607 462.17Z" fill="#7B61FF"/>
<path fill-rule="evenodd" clip-rule="evenodd" d="M202.55 470.841C205.14 486.941 208.185 503.003 210.586 519.132C211.363 524.302 216.193 527.879 221.373 527.11C226.553 526.333 230.129 521.503 229.361 516.323C226.932 500.128 223.887 484 221.287 467.824C220.453 462.654 215.586 459.134 210.415 459.969C205.244 460.794 201.715 465.671 202.55 470.841Z" fill="#7B61FF"/>
<path fill-rule="evenodd" clip-rule="evenodd" d="M177.523 353.308C176.77 354.599 175.316 356.073 173.708 357.592C170.077 361.036 165.47 364.461 163.356 366.157C161.915 367.322 161.878 369.358 163.286 370.704C164.694 372.05 167.006 372.191 168.454 371.029C171.031 368.953 177.134 364.409 181.057 360.259C183.073 358.127 184.517 356.024 185.032 354.33C185.527 352.665 185.177 351.312 184.381 350.165C183.544 348.959 181.95 347.872 179.554 347.129C176.922 346.315 172.934 345.765 168.75 344.639C165.239 343.696 161.53 342.329 158.683 339.698C157.252 338.371 154.938 338.255 153.519 339.446C152.104 340.628 152.106 342.668 153.54 343.987C158.875 348.93 166.353 350.791 172.351 352.024C174.139 352.39 176.31 352.967 177.523 353.308Z" fill="black"/>
<path fill-rule="evenodd" clip-rule="evenodd" d="M86.9475 322.797C104.554 338.879 125.753 352.553 149.05 356.228C157.607 357.577 165.986 356.857 174.566 356.197C175.32 356.139 175.817 355.579 175.672 354.95C175.53 354.321 174.801 353.854 174.05 353.913C165.73 354.554 157.61 355.284 149.32 353.976C126.374 350.358 105.586 336.712 88.3324 320.807C88.4372 320.659 88.5448 320.512 88.6524 320.365C91.0188 317.136 91.2596 311.681 90.0281 305.606C88.2434 296.786 83.4537 286.642 78.4566 280.494C76.1528 277.656 73.7495 275.652 71.5939 274.848C69.7983 274.176 68.114 274.215 66.6185 275.086C65.3871 275.807 64.5272 276.891 64.0256 278.279C63.3574 280.131 63.328 282.562 63.8117 285.326C65.6011 295.556 74.3652 310.506 79.7464 315.9C81.4319 317.59 83.1563 319.264 84.9231 320.921C84.2765 321.857 83.6547 322.751 82.9612 323.547C81.9431 324.717 80.7787 325.668 79.0731 326.153C75.9259 327.05 72.5214 326.535 69.1957 325.34C63.8702 323.428 58.7502 319.783 55.0394 316.815C34.1676 300.126 27.1028 277.933 25.4102 256.919C23.6964 235.668 27.4863 215.599 28.3429 203.442C28.3853 202.816 27.7987 202.229 27.033 202.134C26.2681 202.036 25.6097 202.467 25.5645 203.092C24.7042 215.316 20.913 235.491 22.6337 256.852C24.3756 278.45 31.7506 301.231 53.2047 318.388C57.1541 321.543 62.6292 325.393 68.2959 327.43C72.3033 328.867 76.4069 329.408 80.1961 328.33C82.4054 327.701 83.9579 326.508 85.2723 324.999C85.8615 324.322 86.4049 323.576 86.9475 322.797ZM86.3205 318.927C88.3612 316.012 88.3763 311.15 87.2859 305.77C85.5711 297.295 80.9922 287.547 76.1923 281.638C74.5828 279.659 72.9734 278.121 71.4315 277.281C70.3178 276.673 69.2681 276.472 68.3668 277C67.3295 277.606 66.7539 278.63 66.4702 279.915C66.1413 281.395 66.2113 283.207 66.5647 285.217C68.2809 295.027 76.6644 309.376 81.824 314.546C83.293 316.017 84.7933 317.48 86.3205 318.927Z" fill="black" stroke="black" stroke-width="2"/>
<path d="M201.385 82.7681L201.385 82.7681L201.386 82.7659C202.399 80.5833 203.39 78.386 204.38 76.1889C209.703 64.3805 215.022 52.5805 223.93 43.1109L223.931 43.1097C224.75 42.234 224.711 40.8608 223.835 40.0341L223.833 40.0317C222.956 39.2153 221.582 39.2496 220.754 40.1233L220.753 40.1246C211.42 50.0467 205.829 62.414 200.318 74.6031C199.36 76.7218 198.404 78.8351 197.432 80.9293C196.92 82.0194 197.402 83.3172 198.492 83.821C199.585 84.3341 200.876 83.8497 201.385 82.7681Z" fill="black" stroke="black"/>
<path d="M176.613 53.9L176.616 53.9006C177.798 54.0938 178.613 55.2043 178.425 56.3948L176.613 53.9ZM176.613 53.9C175.426 53.7145 174.308 54.5246 174.122 55.7088C173.004 62.7829 174.014 69.4748 176.345 76.187C176.737 77.3234 177.977 77.9309 179.116 77.5354C180.251 77.1462 180.857 75.9019 180.46 74.769C178.352 68.7028 177.428 62.7068 178.425 56.395L176.613 53.9Z" fill="black" stroke="black"/>
<path d="M120.265 48.8279L120.265 48.8276C120.072 47.6439 118.954 46.8343 117.766 47.0274C116.579 47.2145 115.771 48.3338 115.964 49.5187C117.376 58.2044 121.493 65.2793 128.238 70.8901C129.163 71.6627 130.54 71.5314 131.306 70.6135L131.307 70.613C132.077 69.6882 131.952 68.3138 131.024 67.548C125.105 62.6241 121.501 56.4433 120.265 48.8279Z" fill="black" stroke="black"/>
<path d="M178.081 99.8494L178.399 99.4635C177.129 98.4174 175.921 97.3101 174.699 96.1893C174.52 96.0258 174.342 95.8621 174.163 95.6982L174.162 95.6975C169.467 91.4225 165.353 86.744 161.353 81.7863L160.964 82.1003L161.353 81.7863C160.279 80.4551 159.198 79.1237 158.115 77.7901C146.336 63.2839 134.338 48.5081 128.495 30.6757L128.495 30.6756C128.122 29.5377 126.894 28.9064 125.748 29.2804C124.604 29.6488 123.983 30.8781 124.353 32.0222L124.354 32.024C130.422 50.5521 142.871 65.901 154.947 80.7906C155.956 82.0344 156.962 83.275 157.962 84.5139L157.962 84.514C160.797 88.0269 163.698 91.4161 166.819 94.6326C158.968 91.0881 148.779 86.876 139.136 84.2833C134.373 83.0023 129.723 82.1309 125.515 81.899C121.312 81.6674 117.514 82.0714 114.476 83.3732L114.476 83.3733C95.4084 91.5506 84.5818 108.457 87.9981 124.705L87.9981 124.705C88.3182 126.225 88.7317 127.728 89.2421 129.197C75.0042 130.852 64.5605 142.563 64.8294 157.067C64.8503 158.272 65.8463 159.225 67.0449 159.207L67.0449 159.207L67.0482 159.207C68.2494 159.182 69.2073 158.196 69.1867 156.991L69.1867 156.99C68.9523 144.348 78.3718 134.247 91.018 133.405C91.8863 135.128 92.903 136.782 94.073 138.331C94.6266 139.065 95.8948 140.513 97.252 141.245C98.7206 142.045 100.334 142.124 101.681 141.014L101.681 141.014C103.313 139.668 103.872 138.194 103.799 136.806C103.731 135.478 103.038 134.209 101.925 133.128L101.925 133.128C100.861 132.097 99.3679 131.215 97.8689 130.538C96.4761 129.909 95.046 129.443 93.8927 129.196C93.1915 127.457 92.6481 125.656 92.2618 123.818C89.2701 109.573 99.0584 94.7224 116.2 87.3707C119.109 86.1238 122.922 85.8849 127.275 86.3465C131.619 86.8072 136.449 87.9595 141.358 89.4448L141.358 89.4448C154.656 93.4664 168.358 100.078 174.818 103.195C175.786 103.662 176.592 104.051 177.209 104.341L177.21 104.341C177.808 104.621 178.305 104.813 178.679 104.936C178.866 104.997 179.025 105.043 179.154 105.073C179.266 105.1 179.392 105.125 179.497 105.126C180.539 105.138 181.076 104.562 181.351 104.159L181.353 104.154C181.737 103.579 181.841 103.013 181.806 102.506L181.806 102.503C181.754 101.81 181.429 101.133 180.754 100.596L180.751 100.593C180.379 100.302 179.843 100.042 179.302 99.8209L179.297 99.819C179.179 99.7725 179.032 99.722 178.905 99.6783C178.832 99.6535 178.766 99.6309 178.716 99.6124C178.535 99.5464 178.441 99.4979 178.398 99.4623L178.081 99.8494ZM178.081 99.8494C178.242 99.9806 178.501 100.069 178.769 100.16C178.884 100.2 179.001 100.24 179.113 100.284L173.825 96.0672C174.004 96.2305 174.182 96.3939 174.36 96.5573C175.582 97.6773 176.8 98.7943 178.081 99.8494ZM124.829 31.8683C124.543 30.9838 125.024 30.0384 125.903 29.7561C126.784 29.4676 127.732 29.9533 128.02 30.8314L124.829 31.8683ZM124.829 31.8683C130.867 50.3044 143.258 65.583 155.345 80.4873C156.35 81.7269 157.353 82.9639 158.351 84.1999L124.829 31.8683ZM99.3259 137.951C99.7199 137.618 99.9653 137.331 99.9469 137.001C99.9264 136.59 99.6072 136.247 99.239 135.889C98.5007 135.17 97.4535 134.532 96.3764 134.028C96.5597 134.313 96.7484 134.595 96.9425 134.873M99.3259 137.951L99.5255 137.493C99.4669 137.467 99.3743 137.425 99.2791 137.377C99.2649 137.37 99.251 137.363 99.2374 137.356M99.3259 137.951C99.1966 137.895 98.9196 137.767 98.7571 137.652M99.3259 137.951L99.0033 137.569C99.0977 137.489 99.175 137.419 99.2374 137.356M99.2374 137.356C99.2992 137.294 99.3464 137.238 99.3814 137.188C99.4466 137.095 99.4488 137.05 99.4476 137.029L99.4475 137.026C99.4436 136.948 99.4109 136.85 99.3148 136.713C99.2159 136.573 99.0744 136.426 98.8907 136.248L98.8902 136.247C98.3774 135.748 97.6921 135.281 96.9425 134.873M99.2374 137.356C99.1577 137.314 99.0908 137.276 99.0472 137.245M96.9425 134.873C97.1401 135.158 97.3433 135.439 97.5517 135.717M96.9425 134.873C96.6479 134.713 96.3433 134.562 96.0354 134.422C96.3889 134.965 96.7618 135.496 97.1526 136.018M97.5517 135.717C97.8493 136.109 98.4198 136.792 99.0472 137.245M97.5517 135.717C97.5521 135.718 97.5525 135.718 97.5529 135.719L97.1526 136.018M97.5517 135.717C97.5515 135.717 97.5512 135.717 97.5509 135.716L97.1526 136.018M97.1526 136.018C97.4589 136.422 98.0668 137.155 98.7571 137.652M98.7571 137.652L99.0452 137.244C99.0458 137.244 99.0465 137.245 99.0472 137.245M98.7571 137.652L99.0495 137.247C99.0488 137.246 99.048 137.246 99.0472 137.245M139.006 84.7662C129.522 82.2155 120.552 81.3134 114.673 83.8328C95.7491 91.9485 85.1353 108.659 88.4874 124.602C88.8112 126.139 89.2319 127.66 89.7526 129.143L139.006 84.7662Z" fill="black" stroke="black"/>
<defs>
<clipPath id="clip0_947_3392">
<rect width="147.768" height="147.768" fill="white" transform="translate(130.979 87.3169)"/>
</clipPath>
</defs>
</svg>
