<svg width="356" height="286" viewBox="0 0 356 286" fill="none" xmlns="http://www.w3.org/2000/svg">
<g clip-path="url(#clip0_1982_4103)">
<path d="M-9.62703 93.8369L55.7101 94.2288C62.2459 94.268 68.5771 91.952 73.5449 87.7048L123.207 45.2462C136.909 33.5325 158.12 39.5777 163.587 56.7544L183.405 119.015C185.387 125.243 189.546 130.549 195.121 133.961L250.848 168.072C266.222 177.483 267.027 199.524 252.381 210.032L199.292 248.119C193.981 251.929 190.22 257.524 188.698 263.88L173.476 327.421C169.277 344.95 148.564 352.527 134.044 341.845L81.4156 303.124C76.1512 299.25 69.6678 297.402 63.1523 297.919L-1.98207 303.077C-19.9516 304.501 -33.5586 287.142 -27.8856 270.032L-7.32259 208.014C-5.26564 201.81 -5.5118 195.073 -8.01598 189.036L-33.05 128.684C-39.9565 112.034 -27.6525 93.7288 -9.62703 93.8369Z" fill="#5651FF" stroke="black" stroke-width="2"/>
<path d="M93.498 11.7773L127.131 39.7006L127.805 40.2603L128.448 39.6655L160.547 9.99208L168.362 53.0011L168.519 53.8632L169.394 53.8212L213.057 51.7228L191.398 89.6932L190.964 90.4543L191.662 90.9847L226.458 117.443L185.46 132.608L184.638 132.912L184.831 133.767L194.48 176.402L153.325 161.666L152.5 161.37L152.099 162.149L132.085 201.012L110.031 163.27L109.589 162.513L108.781 162.852L68.4688 179.757L75.8348 136.669L75.9824 135.805L75.1456 135.545L33.3982 122.584L66.7374 94.3109L67.4057 93.7442L66.9317 93.0072L43.283 56.2432L86.9957 56.0151L87.8719 56.0105L87.9825 55.1413L93.498 11.7773Z" fill="#FFC704" stroke="black" stroke-width="2"/>
</g>
<defs>
<clipPath id="clip0_1982_4103">
<rect width="356" height="286" fill="white"/>
</clipPath>
</defs>
</svg>
