<svg width="493" height="369" viewBox="0 0 493 369" fill="none" xmlns="http://www.w3.org/2000/svg">
<g clip-path="url(#clip0_814_3184)">
<path d="M-37.2721 160.865C-44.4527 143.554 -31.6604 124.523 -12.9194 124.635L75.6947 125.167C81.9901 125.204 88.0885 122.974 92.8736 118.883L160.229 61.2976C174.474 49.119 196.527 55.4041 202.211 73.2626L229.089 157.704C230.999 163.703 235.005 168.813 240.374 172.1L315.955 218.364C331.939 228.148 332.776 251.064 317.548 261.989L245.546 313.645C240.43 317.315 236.808 322.704 235.341 328.827L214.697 415.004C210.331 433.23 188.796 441.108 173.7 430.001L102.322 377.485C97.2512 373.754 91.0063 371.974 84.7304 372.471L-3.60865 379.468C-22.2914 380.948 -36.4385 362.901 -30.5403 345.112L-2.65157 260.999C-0.670272 255.023 -0.907373 248.534 -3.31947 242.719L-37.2721 160.865Z" fill="#5651FF"/>
<path d="M118.251 24.8311L160.402 59.8267L200.631 22.6377L210.426 76.5399L265.147 73.9101L238.003 121.497L281.612 154.657L230.23 173.663L242.322 227.097L190.744 208.628L165.661 257.334L138.021 210.032L87.499 231.219L96.7307 177.218L44.4096 160.973L86.1929 125.54L56.5546 79.464L111.339 79.1782L118.251 24.8311Z" fill="#FFC704"/>
</g>
<defs>
<clipPath id="clip0_814_3184">
<rect width="493" height="369" fill="white"/>
</clipPath>
</defs>
</svg>
