<svg width="339" height="344" viewBox="0 0 339 344" fill="none" xmlns="http://www.w3.org/2000/svg">
<path d="M265.579 27.8127L255.571 46.7607C229.797 95.555 262.233 154.962 317.432 160.061L338.867 162.041L317.732 166.002C263.307 176.201 237.018 238.339 267.595 284.512L279.468 302.442L263.122 288.433C221.029 252.356 155.812 270.434 138.741 322.912L132.112 343.29L132.864 321.86C134.799 266.674 79.7644 227.08 27.901 246.345L7.76114 253.826L25.0444 241.113C69.5514 208.374 66.1401 140.922 18.5383 112.468L0.0534338 101.418L20.8536 106.995C74.4176 121.356 125.199 76.8395 117.704 22.0924L114.793 0.832823L123.448 20.5002C145.734 71.147 212.468 83.0877 250.724 43.2735L265.579 27.8127Z" fill="#01CFA2"/>
</svg>
