<svg width="105" height="18" viewBox="0 0 105 18" fill="none" xmlns="http://www.w3.org/2000/svg">
<path fill-rule="evenodd" clip-rule="evenodd" d="M76.5162 7.00536C80.9954 5.46784 86.1673 3.93671 91.1441 3.54926C95.398 3.21855 99.5079 3.71726 102.874 5.85884C103.349 6.16038 103.942 5.9518 104.198 5.39219C104.454 4.83303 104.276 4.1335 103.802 3.8315C100.129 1.49594 95.6547 0.889944 91.0147 1.25113C85.9483 1.64516 80.683 3.18657 76.1139 4.74634C75.5818 3.48069 74.4817 2.30152 72.5457 1.43308C69.572 0.0989749 65.5144 0.12122 61.2408 0.881303C55.0427 1.98312 48.3773 4.59936 44.092 6.4577C43.9162 6.5335 43.6544 6.65409 43.3342 6.81301C43.2361 6.55885 43.1263 6.3084 43.0048 6.06257C41.9503 3.92007 40.0873 2.18916 38.1907 1.57266C26.162 -2.33642 12.1362 2.38709 0.716255 6.23121C0.200544 6.4056 -0.0995304 7.04357 0.0459448 7.65468C0.195334 8.26578 0.735219 8.62021 1.25484 8.44581C12.3544 4.70902 25.9815 -0.00514913 37.674 3.79338C39.1131 4.26126 40.5142 5.59156 41.3139 7.21754C41.4041 7.39892 41.4825 7.58446 41.557 7.77277C39.9831 8.69493 38.1321 9.98002 37.1373 11.3542C36.1152 12.763 35.8632 14.2656 36.7564 15.6832C37.5242 16.8951 38.6852 16.9967 39.8922 16.3662C41.1928 15.6909 42.5313 14.1144 42.9642 13.3749C43.7753 11.9936 44.0311 10.496 43.8806 9.03638C44.2634 8.84513 44.5743 8.70282 44.7661 8.61963C48.9576 6.80241 55.4727 4.23657 61.5333 3.1589C65.4328 2.46521 69.1378 2.36839 71.8514 3.58539C73.0087 4.10479 73.7737 4.7118 74.1894 5.41697C73.3713 5.7065 72.5825 5.99138 71.8289 6.26331C70.3385 6.80115 67.235 7.69226 65.019 9.27592C63.2568 10.5351 62.0631 12.2463 62.1356 14.3893C62.1727 15.4902 62.7143 16.2243 63.5752 16.6349C64.8617 17.2481 67.0845 16.9474 67.9121 16.739C70.4222 16.108 73.77 13.5061 75.424 10.5771C76.0841 9.40837 76.476 8.18612 76.5162 7.00536ZM74.4545 7.72781C73.7455 7.98033 73.0602 8.22821 72.4019 8.46591C71.0107 8.96815 68.1022 9.76687 66.033 11.2458C64.9373 12.0286 64.0431 12.9659 64.0883 14.2986C64.092 14.4022 64.1792 14.4316 64.2563 14.4738C64.3756 14.5386 64.512 14.5831 64.6575 14.6179C65.6417 14.8534 66.9629 14.6226 67.5037 14.4864C69.6097 13.9569 72.4092 11.7579 73.7969 9.30009C74.0902 8.78097 74.3235 8.25224 74.4545 7.72781ZM41.9511 10.0995C41.0334 10.6578 40.0727 11.3326 39.3155 12.0666C38.9134 12.4564 38.5739 12.8572 38.3595 13.2731C38.1802 13.617 38.1103 13.969 38.3258 14.3087C38.412 14.4463 38.5409 14.4489 38.6738 14.4229C38.8145 14.3951 38.959 14.3359 39.1036 14.2597C40.0566 13.7636 41.04 12.6064 41.3558 12.0638C41.7263 11.4344 41.9091 10.769 41.9511 10.0995Z" fill="black"/>
</svg>
